<?xml version="1.0" encoding="UTF-8"?>
<!DOCTYPE svg PUBLIC "-//W3C//DTD SVG 1.1//EN" "http://www.w3.org/Graphics/SVG/1.1/DTD/svg11.dtd">
<svg xmlns="http://www.w3.org/2000/svg" version="1.1" width="512px" height="512px" style="shape-rendering:geometricPrecision; text-rendering:geometricPrecision; image-rendering:optimizeQuality; fill-rule:evenodd; clip-rule:evenodd" xmlns:xlink="http://www.w3.org/1999/xlink">
<g><path style="opacity:0.92" fill="#000000" d="M 146.5,55.5 C 152.176,55.3339 157.843,55.5006 163.5,56C 169.421,62.3952 168.421,67.3952 160.5,71C 114.124,75.3778 89.2902,100.878 86,147.5C 81.3333,152.833 76.6667,152.833 72,147.5C 71.2913,107.74 88.7913,79.2397 124.5,62C 131.81,59.2808 139.143,57.1141 146.5,55.5 Z"/></g>
<g><path style="opacity:0.917" fill="#000000" d="M 149.5,87.5 C 154.179,87.3342 158.845,87.5008 163.5,88C 169.194,93.8623 168.527,98.8623 161.5,103C 143.084,103.423 129.918,111.923 122,128.5C 120.435,135.19 118.935,141.856 117.5,148.5C 112.179,152.934 107.679,152.267 104,146.5C 103.923,115.077 119.089,95.4107 149.5,87.5 Z"/></g>
<g><path style="opacity:0.938" fill="#000000" d="M 511.5,186.5 C 511.5,189.167 511.5,191.833 511.5,194.5C 504.531,202.308 497.698,210.308 491,218.5C 485.452,246.457 480.118,274.457 475,302.5C 472.401,310.766 466.901,315.932 458.5,318C 451.785,318.711 445.118,318.378 438.5,317C 366.896,303.4 295.23,290.233 223.5,277.5C 223.334,284.508 223.5,291.508 224,298.5C 235.176,315.237 233.676,330.737 219.5,345C 216.112,347.361 212.446,349.194 208.5,350.5C 209.548,367.211 203.882,381.045 191.5,392C 186.655,395.422 181.322,397.755 175.5,399C 132.835,399.5 90.168,399.667 47.5,399.5C 47.8811,412.879 47.3811,426.212 46,439.5C 43.0731,447.428 37.5731,452.594 29.5,455C 20.8333,455.667 12.1667,455.667 3.5,455C 1.64977,454.31 0.316435,453.144 -0.5,451.5C -0.5,406.167 -0.5,360.833 -0.5,315.5C 1.01027,314.164 2.67694,312.997 4.5,312C 13.5623,311.119 22.5623,311.452 31.5,313C 40.9899,317.314 46.3232,324.647 47.5,335C 88.8333,335.667 130.167,335.667 171.5,335C 165.313,322.121 166.479,309.955 175,298.5C 175.5,288.172 175.666,277.839 175.5,267.5C 150.527,266.692 140.86,254.192 146.5,230C 131.284,226.091 124.784,216.257 127,200.5C 131,179.167 135,157.833 139,136.5C 145.943,120.725 157.776,115.558 174.5,121C 285.209,141.451 395.876,162.118 506.5,183C 508.323,183.997 509.99,185.164 511.5,186.5 Z M 159.5,135.5 C 269.268,155.017 378.935,175.184 488.5,196C 469.959,216.872 451.792,238.039 434,259.5C 427.24,264.81 419.74,265.977 411.5,263C 344.487,250.564 277.487,238.064 210.5,225.5C 201.746,228.773 200.413,233.939 206.5,241C 278.214,254.869 350.047,268.035 422,280.5C 430.103,280.577 437.27,278.077 443.5,273C 452,263.167 460.5,253.333 469,243.5C 466.323,261.892 462.989,280.225 459,298.5C 457.833,299.667 456.667,300.833 455.5,302C 450.455,302.551 445.455,302.218 440.5,301C 348.002,284.14 255.669,266.64 163.5,248.5C 161.154,246.763 160.154,244.43 160.5,241.5C 160.806,238.468 161.306,235.468 162,232.5C 168.949,235.011 176.115,235.844 183.5,235C 188.833,230.333 188.833,225.667 183.5,221C 171.893,218.412 160.226,216.079 148.5,214C 143.574,211.647 141.74,207.814 143,202.5C 146.699,181.004 151.032,159.67 156,138.5C 157.145,137.364 158.312,136.364 159.5,135.5 Z M 191.5,271.5 C 196.833,272.167 202.167,272.833 207.5,273.5C 207.5,278.5 207.5,283.5 207.5,288.5C 202.167,287.167 196.833,287.167 191.5,288.5C 191.5,282.833 191.5,277.167 191.5,271.5 Z M 196.5,303.5 C 209.314,303.48 215.481,309.813 215,322.5C 210.652,334.731 202.485,338.231 190.5,333C 181.618,324.626 181.285,315.96 189.5,307C 191.925,305.787 194.259,304.621 196.5,303.5 Z M 14.5,327.5 C 18.1817,327.335 21.8484,327.501 25.5,328C 28.6626,329.48 30.496,331.98 31,335.5C 31.6667,367.833 31.6667,400.167 31,432.5C 30.3102,435.196 28.8102,437.363 26.5,439C 22.5138,439.499 18.5138,439.666 14.5,439.5C 14.5,402.167 14.5,364.833 14.5,327.5 Z M 47.5,351.5 C 95.5,351.5 143.5,351.5 191.5,351.5C 193.416,367.193 187.083,377.693 172.5,383C 130.835,383.5 89.168,383.667 47.5,383.5C 47.5,372.833 47.5,362.167 47.5,351.5 Z"/></g>
</svg>
