<?xml version="1.0" encoding="UTF-8"?>
<!DOCTYPE svg PUBLIC "-//W3C//DTD SVG 1.1//EN" "http://www.w3.org/Graphics/SVG/1.1/DTD/svg11.dtd">
<svg xmlns="http://www.w3.org/2000/svg" version="1.1" width="512px" height="512px" style="shape-rendering:geometricPrecision; text-rendering:geometricPrecision; image-rendering:optimizeQuality; fill-rule:evenodd; clip-rule:evenodd" xmlns:xlink="http://www.w3.org/1999/xlink">
<g><path style="opacity:0.997" fill="#e2e6f2" d="M 378.5,105.5 C 378.823,109.226 378.489,112.893 377.5,116.5C 320.167,83.5 262.833,50.5 205.5,17.5C 204.333,87.4976 204.167,157.498 205,227.5C 294.028,279.761 383.528,331.094 473.5,381.5C 473.5,360.833 473.5,340.167 473.5,319.5C 475.98,320.242 478.313,321.242 480.5,322.5C 481.209,323.404 482.209,323.737 483.5,323.5C 483.667,342.836 483.5,362.17 483,381.5C 480.749,383.377 478.249,384.877 475.5,386C 474.663,387.011 474.33,388.178 474.5,389.5C 420.861,420.988 367.194,452.488 313.5,484C 305.508,488.579 297.341,492.746 289,496.5C 279.977,492.503 271.144,488.003 262.5,483C 180.02,435.339 97.6867,387.505 15.5,339.5C 15.2965,337.61 15.9632,336.11 17.5,335C 79.83,299.16 140.997,263.326 201,227.5C 200.333,156.5 200.333,85.5 201,14.5C 206.427,8.67925 212.26,8.17925 218.5,13C 271.697,44.0977 325.031,74.931 378.5,105.5 Z"/></g>
<g><path style="opacity:1" fill="#78cb79" d="M 124.5,100.5 C 122.678,83.8629 121.844,66.8629 122,49.5C 121.333,48.1667 120.667,46.8333 120,45.5C 104.904,36.2064 89.7375,27.2064 74.5,18.5C 77.4379,16.023 80.7712,14.023 84.5,12.5C 100.581,20.9533 116.081,30.2866 131,40.5C 132.64,59.0763 132.974,77.743 132,96.5C 129.525,97.9858 127.025,99.3192 124.5,100.5 Z"/></g>
<g><path style="opacity:1" fill="#5c5f73" d="M 378.5,105.5 C 378.174,97.3159 378.508,89.3159 379.5,81.5C 379.5,97.1667 379.5,112.833 379.5,128.5C 324.833,97.1667 270.167,65.8333 215.5,34.5C 215.44,33.9569 215.107,33.6236 214.5,33.5C 213.5,72.4943 213.167,111.494 213.5,150.5C 213.167,172.51 213.5,194.51 214.5,216.5C 297.194,264.178 379.861,311.845 462.5,359.5C 462.56,360.043 462.893,360.376 463.5,360.5C 464.499,344.848 464.833,329.181 464.5,313.5C 467.709,315.265 470.709,317.265 473.5,319.5C 473.5,340.167 473.5,360.833 473.5,381.5C 383.528,331.094 294.028,279.761 205,227.5C 204.167,157.498 204.333,87.4976 205.5,17.5C 262.833,50.5 320.167,83.5 377.5,116.5C 378.489,112.893 378.823,109.226 378.5,105.5 Z"/></g>
<g><path style="opacity:1" fill="#69ac69" d="M 74.5,18.5 C 89.7375,27.2064 104.904,36.2064 120,45.5C 120.667,46.8333 121.333,48.1667 122,49.5C 121.844,66.8629 122.678,83.8629 124.5,100.5C 122.312,102.755 119.646,103.589 116.5,103C 103.167,95.3333 89.8333,87.6667 76.5,80C 75,78.5 73.5,77 72,75.5C 70.3602,57.2572 70.0269,38.9239 71,20.5C 71.8159,19.1772 72.9826,18.5106 74.5,18.5 Z"/></g>
<g><path style="opacity:1" fill="#758bfc" d="M 215.5,34.5 C 270.167,65.8333 324.833,97.1667 379.5,128.5C 379.142,132.95 380.808,136.45 384.5,139C 396.5,146 408.5,153 420.5,160C 423.206,161.908 426.206,162.741 429.5,162.5C 430.605,161.4 431.938,160.733 433.5,160.5C 443.854,165.762 454.021,171.429 464,177.5C 464.5,199.164 464.667,220.831 464.5,242.5C 458.626,239.646 452.793,236.646 447,233.5C 443.532,235.144 440.365,237.144 437.5,239.5C 435.983,239.511 434.816,240.177 434,241.5C 433.041,259.233 433.375,276.899 435,294.5C 436.167,297 438,298.833 440.5,300C 448.559,304.022 456.225,308.522 463.5,313.5C 463.83,329.009 463.496,344.342 462.5,359.5C 379.861,311.845 297.194,264.178 214.5,216.5C 213.5,194.51 213.167,172.51 213.5,150.5C 214.167,111.833 214.833,73.1667 215.5,34.5 Z"/></g>
<g><path style="opacity:1" fill="#f1f7f1" d="M 77.5,45.5 C 83.0516,45.2727 87.0516,47.6061 89.5,52.5C 89.1667,52.8333 88.8333,53.1667 88.5,53.5C 86.7475,51.7389 84.7475,50.4056 82.5,49.5C 80.2606,49.5743 79.2606,50.741 79.5,53C 79.8456,58.6789 82.8456,61.6789 88.5,62C 89.3366,63.0113 89.67,64.1779 89.5,65.5C 81.4448,63.7751 76.7781,58.7751 75.5,50.5C 75.4365,48.4861 76.1032,46.8194 77.5,45.5 Z"/></g>
<g><path style="opacity:1" fill="#eff6ef" d="M 92.5,53.5 C 96.1823,53.5907 99.349,54.924 102,57.5C 102.051,61.1912 100.884,61.3579 98.5,58C 97.365,57.2506 96.365,57.4173 95.5,58.5C 98.1884,61.354 100.688,64.354 103,67.5C 103.743,69.4406 103.576,71.2739 102.5,73C 98.1894,72.9265 94.6894,71.0931 92,67.5C 91.2506,66.365 91.4173,65.365 92.5,64.5C 93.7481,66.4586 95.4148,67.9586 97.5,69C 98.4835,69.5908 99.1501,69.2575 99.5,68C 97.0139,64.8444 94.5139,61.6777 92,58.5C 91.3603,56.735 91.5269,55.0683 92.5,53.5 Z"/></g>
<g><path style="opacity:1" fill="#f5f9f5" d="M 105.5,61.5 C 110.213,61.1898 113.88,63.0231 116.5,67C 116,67.5 115.5,68 115,68.5C 113.587,66.5864 111.753,65.2531 109.5,64.5C 109.167,65 108.833,65.5 108.5,66C 111.412,69.0527 114.245,72.2194 117,75.5C 117.934,80.0833 116.1,81.5833 111.5,80C 108.872,78.3745 106.539,76.3745 104.5,74C 105,73.5 105.5,73 106,72.5C 107.739,74.7411 109.906,76.4078 112.5,77.5C 112.833,77 113.167,76.5 113.5,76C 111.356,72.8559 108.856,70.0226 106,67.5C 105.505,65.5273 105.338,63.5273 105.5,61.5 Z"/></g>
<g><path style="opacity:1" fill="#e3a856" d="M 225.5,57.5 C 235.64,62.4018 245.307,68.0684 254.5,74.5C 254.167,74.8333 253.833,75.1667 253.5,75.5C 245.662,70.7467 237.662,66.2467 229.5,62C 227.365,61.1237 226.031,59.6237 225.5,57.5 Z"/></g>
<g><path style="opacity:1" fill="#e34969" d="M 225.5,71.5 C 227.816,72.8056 230.15,74.1389 232.5,75.5C 233.583,76.365 233.749,77.365 233,78.5C 229.28,77.2745 226.78,74.9412 225.5,71.5 Z"/></g>
<g><path style="opacity:1" fill="#5d70fa" d="M 441.5,141.5 C 440.517,145.298 440.183,149.298 440.5,153.5C 440.631,154.239 440.464,154.906 440,155.5C 437.674,157.066 435.508,158.732 433.5,160.5C 431.938,160.733 430.605,161.4 429.5,162.5C 430.999,144.465 430.832,126.465 429,108.5C 427.954,106.91 426.787,105.41 425.5,104C 410.94,95.5555 396.274,87.3888 381.5,79.5C 385.161,75.1714 389.828,73.338 395.5,74C 410.583,81.9545 425.083,90.7878 439,100.5C 439.667,101.833 440.333,103.167 441,104.5C 441.5,116.829 441.667,129.162 441.5,141.5 Z"/></g>
<g><path style="opacity:1" fill="#d8def5" d="M 224.5,64.5 C 234.747,68.9576 244.414,74.4576 253.5,81C 253.15,82.2575 252.483,82.5908 251.5,82C 242.833,77 234.167,72 225.5,67C 224.748,66.3292 224.414,65.4959 224.5,64.5 Z"/></g>
<g><path style="opacity:1" fill="#4763ef" d="M 381.5,79.5 C 396.274,87.3888 410.94,95.5555 425.5,104C 426.787,105.41 427.954,106.91 429,108.5C 430.832,126.465 430.999,144.465 429.5,162.5C 426.206,162.741 423.206,161.908 420.5,160C 408.5,153 396.5,146 384.5,139C 380.808,136.45 379.142,132.95 379.5,128.5C 379.5,112.833 379.5,97.1667 379.5,81.5C 379.5,80.1667 380.167,79.5 381.5,79.5 Z"/></g>
<g><path style="opacity:1" fill="#d8ddf5" d="M 232.5,83.5 C 238.966,86.2318 244.966,89.7318 250.5,94C 250.15,95.2575 249.483,95.5908 248.5,95C 243.666,91.7484 238.666,88.7484 233.5,86C 232.748,85.3292 232.414,84.4959 232.5,83.5 Z"/></g>
<g><path style="opacity:1" fill="#8899ee" d="M 215.5,34.5 C 214.833,73.1667 214.167,111.833 213.5,150.5C 213.167,111.494 213.5,72.4943 214.5,33.5C 215.107,33.6236 215.44,33.9569 215.5,34.5 Z"/></g>
<g><path style="opacity:1" fill="#d8ddf5" d="M 232.5,90.5 C 252.142,101.321 271.476,112.654 290.5,124.5C 290.167,124.833 289.833,125.167 289.5,125.5C 270.833,114.833 252.167,104.167 233.5,93.5C 232.614,92.675 232.281,91.675 232.5,90.5 Z"/></g>
<g><path style="opacity:1" fill="#f7f8fe" d="M 393.5,95.5 C 399.38,95.0868 402.047,97.7534 401.5,103.5C 400.167,103.5 398.833,103.5 397.5,103.5C 398.055,107.997 397.389,112.164 395.5,116C 396.126,116.75 396.626,117.584 397,118.5C 397.333,122.833 397.667,127.167 398,131.5C 398.667,132.833 399.667,133.833 401,134.5C 401.798,136.259 401.631,137.926 400.5,139.5C 396.47,137.637 393.637,134.637 392,130.5C 391.667,125.833 391.333,121.167 391,116.5C 388.863,114.679 388.03,112.346 388.5,109.5C 389.5,109.5 390.5,109.5 391.5,109.5C 390.962,104.533 391.629,99.8662 393.5,95.5 Z"/></g>
<g><path style="opacity:1" fill="#e2a858" d="M 256.5,97.5 C 263.63,100.564 270.297,104.397 276.5,109C 276.167,109.5 275.833,110 275.5,110.5C 269.63,106.8 263.63,103.3 257.5,100C 256.748,99.3292 256.414,98.4959 256.5,97.5 Z"/></g>
<g><path style="opacity:1" fill="#f1f2fe" d="M 408.5,102.5 C 417.654,107.823 421.154,115.823 419,126.5C 421.455,128.374 421.955,130.707 420.5,133.5C 419.914,133.291 419.414,132.957 419,132.5C 418.774,136.887 418.274,141.221 417.5,145.5C 411.504,147.681 408.504,145.681 408.5,139.5C 409.5,139.5 410.5,139.5 411.5,139.5C 411.032,134.63 411.698,129.964 413.5,125.5C 412.721,120.887 412.221,116.22 412,111.5C 411.632,110.09 410.799,109.09 409.5,108.5C 408.534,106.604 408.201,104.604 408.5,102.5 Z"/></g>
<g><path style="opacity:1" fill="#e44968" d="M 232.5,97.5 C 238.671,101.084 244.671,104.917 250.5,109C 250.333,109.5 250.167,110 250,110.5C 245.249,107.541 240.416,104.707 235.5,102C 233.561,101.092 232.561,99.5922 232.5,97.5 Z"/></g>
<g><path style="opacity:1" fill="#4161d9" d="M 232.5,105.5 C 240.779,109.975 249.113,114.475 257.5,119C 258.517,120.049 258.684,121.216 258,122.5C 251.079,117.955 243.912,113.788 236.5,110C 234.365,109.124 233.031,107.624 232.5,105.5 Z"/></g>
<g><path style="opacity:1" fill="#d9def4" d="M 224.5,115.5 C 238.64,122.735 252.307,130.735 265.5,139.5C 263.477,140.041 261.477,139.541 259.5,138C 248.663,131.414 237.663,125.081 226.5,119C 225.177,118.184 224.511,117.017 224.5,115.5 Z"/></g>
<g><path style="opacity:1" fill="#d8def5" d="M 232.5,112.5 C 241.927,117.41 251.26,122.576 260.5,128C 261.517,129.049 261.684,130.216 261,131.5C 251.915,126.04 242.749,120.707 233.5,115.5C 232.614,114.675 232.281,113.675 232.5,112.5 Z"/></g>
<g><path style="opacity:1" fill="#e04c6f" d="M 224.5,122.5 C 226.255,123.072 227.922,123.906 229.5,125C 231.007,125.837 231.507,127.004 231,128.5C 229.247,127.373 227.413,126.373 225.5,125.5C 224.614,124.675 224.281,123.675 224.5,122.5 Z"/></g>
<g><path style="opacity:1" fill="#eac6b5" d="M 169.5,215.5 C 170.154,206.575 170.487,197.575 170.5,188.5C 170.641,179.071 170.141,169.737 169,160.5C 166.433,157.269 163.266,154.769 159.5,153C 148.337,146.919 137.337,140.586 126.5,134C 124.975,132.991 123.308,132.491 121.5,132.5C 125.713,128.388 130.713,126.555 136.5,127C 150.929,135.102 165.095,143.602 179,152.5C 179.667,153.833 180.333,155.167 181,156.5C 181.667,173.833 181.667,191.167 181,208.5C 177.563,211.469 173.73,213.802 169.5,215.5 Z"/></g>
<g><path style="opacity:1" fill="#d8def5" d="M 278.5,109.5 C 296.838,119.666 314.838,130.333 332.5,141.5C 330.477,142.041 328.477,141.541 326.5,140C 311.663,131.081 296.663,122.414 281.5,114C 279.561,113.092 278.561,111.592 278.5,109.5 Z"/></g>
<g><path style="opacity:1" fill="#ddb09c" d="M 121.5,132.5 C 123.308,132.491 124.975,132.991 126.5,134C 137.337,140.586 148.337,146.919 159.5,153C 163.266,154.769 166.433,157.269 169,160.5C 170.141,169.737 170.641,179.071 170.5,188.5C 170.487,197.575 170.154,206.575 169.5,215.5C 166.747,216.659 164.081,216.159 161.5,214C 148.833,206.667 136.167,199.333 123.5,192C 122.213,190.59 121.046,189.09 120,187.5C 119.333,169.5 119.333,151.5 120,133.5C 120.383,132.944 120.883,132.611 121.5,132.5 Z"/></g>
<g><path style="opacity:1" fill="#e44968" d="M 293.5,125.5 C 306.833,132.831 319.833,140.664 332.5,149C 332.333,149.5 332.167,150 332,150.5C 320.412,143.288 308.579,136.454 296.5,130C 294.561,129.092 293.561,127.592 293.5,125.5 Z"/></g>
<g><path style="opacity:1" fill="#d7ddf5" d="M 234.5,128.5 C 244.606,133.722 254.606,139.222 264.5,145C 265.517,146.049 265.684,147.216 265,148.5C 255.248,142.707 245.415,137.04 235.5,131.5C 234.614,130.675 234.281,129.675 234.5,128.5 Z"/></g>
<g><path style="opacity:1" fill="#d7ddf5" d="M 253.5,109.5 C 270.832,119.164 287.832,129.33 304.5,140C 304.333,140.5 304.167,141 304,141.5C 287.418,132.126 270.918,122.626 254.5,113C 253.663,111.989 253.33,110.822 253.5,109.5 Z"/></g>
<g><path style="opacity:1" fill="#d7dcf5" d="M 224.5,130.5 C 227.889,131.691 231.222,133.191 234.5,135C 239.377,137.932 244.043,141.099 248.5,144.5C 248.167,144.833 247.833,145.167 247.5,145.5C 240.295,141.133 232.962,136.967 225.5,133C 224.748,132.329 224.414,131.496 224.5,130.5 Z"/></g>
<g><path style="opacity:1" fill="#d8ddf5" d="M 261.5,121.5 C 277.31,130.908 293.31,140.074 309.5,149C 310.517,150.049 310.684,151.216 310,152.5C 294.412,142.954 278.579,133.788 262.5,125C 261.663,123.989 261.33,122.822 261.5,121.5 Z"/></g>
<g><path style="opacity:0.994" fill="#e0e4f0" d="M 441.5,141.5 C 452.775,148.811 464.442,155.645 476.5,162C 479.333,163.5 481.5,165.667 483,168.5C 483.5,196.831 483.667,225.165 483.5,253.5C 479.827,252 476.494,250 473.5,247.5C 473.667,222.498 473.5,197.498 473,172.5C 462.522,165.513 451.688,159.18 440.5,153.5C 440.183,149.298 440.517,145.298 441.5,141.5 Z"/></g>
<g><path style="opacity:1" fill="#d8def5" d="M 310.5,142.5 C 318.001,146.75 325.335,151.25 332.5,156C 332.167,156.5 331.833,157 331.5,157.5C 324.997,153.414 318.33,149.581 311.5,146C 310.663,144.989 310.33,143.822 310.5,142.5 Z"/></g>
<g><path style="opacity:1" fill="#f8bc50" d="M 84.5,235.5 C 86.5,235.5 88.5,235.5 90.5,235.5C 91.0713,228.219 90.4047,221.219 88.5,214.5C 89.3382,214.158 89.6716,213.492 89.5,212.5C 90.166,207.678 90.4993,202.678 90.5,197.5C 90.6215,191.727 90.1215,186.061 89,180.5C 74.5384,170.351 59.3717,161.351 43.5,153.5C 42.4163,153.685 41.4163,154.018 40.5,154.5C 42.3306,152.224 44.6639,150.391 47.5,149C 49.9141,147.115 52.5808,146.448 55.5,147C 70.7465,155.204 85.5799,164.037 100,173.5C 100.973,175.392 101.64,177.392 102,179.5C 102.432,196.176 102.099,212.843 101,229.5C 96.1914,234.36 90.6914,236.36 84.5,235.5 Z"/></g>
<g><path style="opacity:1" fill="#d8def5" d="M 224.5,137.5 C 240.797,145.646 256.464,154.813 271.5,165C 271.333,165.5 271.167,166 271,166.5C 256.248,157.874 241.415,149.374 226.5,141C 225.177,140.184 224.511,139.017 224.5,137.5 Z"/></g>
<g><path style="opacity:1" fill="#d8def5" d="M 224.5,144.5 C 237.671,152.144 251.005,159.644 264.5,167C 266.26,167.965 266.594,169.132 265.5,170.5C 252.167,162.833 238.833,155.167 225.5,147.5C 224.614,146.675 224.281,145.675 224.5,144.5 Z"/></g>
<g><path style="opacity:1" fill="#efad45" d="M 89.5,212.5 C 88.1147,211.386 86.6147,210.386 85,209.5C 84.8253,205.789 84.3253,202.122 83.5,198.5C 82.914,198.291 82.414,197.957 82,197.5C 81.3333,201.833 81.3333,206.167 82,210.5C 84.3143,211.733 86.4809,213.067 88.5,214.5C 90.4047,221.219 91.0713,228.219 90.5,235.5C 88.5,235.5 86.5,235.5 84.5,235.5C 70.1141,227.556 55.9474,219.223 42,210.5C 41.3333,209.167 40.6667,207.833 40,206.5C 39.1715,188.995 39.3382,171.662 40.5,154.5C 41.4163,154.018 42.4163,153.685 43.5,153.5C 59.3717,161.351 74.5384,170.351 89,180.5C 90.1215,186.061 90.6215,191.727 90.5,197.5C 90.4993,202.678 90.166,207.678 89.5,212.5 Z"/></g>
<g><path style="opacity:1" fill="#5c5f72" d="M 440.5,153.5 C 451.688,159.18 462.522,165.513 473,172.5C 473.5,197.498 473.667,222.498 473.5,247.5C 470.24,246.226 467.24,244.56 464.5,242.5C 464.667,220.831 464.5,199.164 464,177.5C 454.021,171.429 443.854,165.762 433.5,160.5C 435.508,158.732 437.674,157.066 440,155.5C 440.464,154.906 440.631,154.239 440.5,153.5 Z"/></g>
<g><path style="opacity:1" fill="#4362da" d="M 250.5,144.5 C 261.003,149.915 271.003,156.082 280.5,163C 280.333,163.5 280.167,164 280,164.5C 270.582,158.874 261.082,153.374 251.5,148C 250.663,146.989 250.33,145.822 250.5,144.5 Z"/></g>
<g><path style="opacity:1" fill="#d8def5" d="M 314.5,152.5 C 321.015,155.354 327.015,159.02 332.5,163.5C 332.167,163.833 331.833,164.167 331.5,164.5C 326.167,161.5 320.833,158.5 315.5,155.5C 314.614,154.675 314.281,153.675 314.5,152.5 Z"/></g>
<g><path style="opacity:1" fill="#faf5f2" d="M 122.5,161.5 C 127.537,161.413 132.537,161.746 137.5,162.5C 137.5,164.167 137.5,165.833 137.5,167.5C 134.507,166.865 131.507,166.699 128.5,167C 131.333,169.833 134.167,172.667 137,175.5C 137.667,177.167 137.667,178.833 137,180.5C 131.966,175.801 127.3,170.801 123,165.5C 122.51,164.207 122.343,162.873 122.5,161.5 Z"/></g>
<g><path style="opacity:1" fill="#fcfaf8" d="M 148.5,160.5 C 150.2,161.016 151.533,162.016 152.5,163.5C 149.294,172.618 145.794,181.618 142,190.5C 140.243,189.881 139.076,188.714 138.5,187C 141.547,178.021 144.88,169.188 148.5,160.5 Z"/></g>
<g><path style="opacity:1" fill="#e54867" d="M 224.5,159.5 C 229.978,161.737 234.978,164.737 239.5,168.5C 237.477,169.041 235.477,168.541 233.5,167C 230.833,165.333 228.167,163.667 225.5,162C 224.748,161.329 224.414,160.496 224.5,159.5 Z"/></g>
<g><path style="opacity:1" fill="#fbf5f2" d="M 153.5,172.5 C 158.465,176.963 163.298,181.63 168,186.5C 168.494,188.134 168.66,189.801 168.5,191.5C 163.493,191.249 158.493,190.916 153.5,190.5C 153.5,188.833 153.5,187.167 153.5,185.5C 156.525,185.877 159.525,186.044 162.5,186C 159.667,183.167 156.833,180.333 154,177.5C 153.506,175.866 153.34,174.199 153.5,172.5 Z"/></g>
<g><path style="opacity:1" fill="#d8def5" d="M 224.5,166.5 C 232.308,170.237 239.641,174.737 246.5,180C 246.333,180.5 246.167,181 246,181.5C 239.085,177.626 232.251,173.626 225.5,169.5C 224.614,168.675 224.281,167.675 224.5,166.5 Z"/></g>
<g><path style="opacity:1" fill="#fdf6ec" d="M 53.5,181.5 C 53.8168,185.702 53.4834,189.702 52.5,193.5C 51.7839,191.444 51.1172,189.277 50.5,187C 47.715,184.888 46.0483,185.722 45.5,189.5C 44.914,189.291 44.414,188.957 44,188.5C 43.3333,184.167 43.3333,179.833 44,175.5C 45.9253,177.592 47.0919,180.092 47.5,183C 50.285,185.112 51.9517,184.278 52.5,180.5C 53.1067,180.624 53.44,180.957 53.5,181.5 Z"/></g>
<g><path style="opacity:1" fill="#e3a856" d="M 241.5,169.5 C 248.63,172.564 255.297,176.397 261.5,181C 261.167,181.5 260.833,182 260.5,182.5C 255.5,179.667 250.5,176.833 245.5,174C 243.365,173.124 242.031,171.624 241.5,169.5 Z"/></g>
<g><path style="opacity:1" fill="#d9def4" d="M 275.5,166.5 C 290.473,174.988 305.473,183.488 320.5,192C 321.517,193.049 321.684,194.216 321,195.5C 306.915,187.207 292.748,179.04 278.5,171C 276.561,170.092 275.561,168.592 275.5,166.5 Z"/></g>
<g><path style="opacity:1" fill="#fdf5e8" d="M 55.5,182.5 C 59.0246,183.759 62.0246,185.759 64.5,188.5C 63.7261,189.711 62.8928,189.711 62,188.5C 61.6667,191.833 61.3333,195.167 61,198.5C 60.586,198.043 60.086,197.709 59.5,197.5C 58.6747,193.878 58.1747,190.211 58,186.5C 56.2942,185.692 55.4609,184.359 55.5,182.5 Z"/></g>
<g><path style="opacity:1" fill="#f6d197" d="M 53.5,181.5 C 54.8111,185.683 54.8111,190.016 53.5,194.5C 52.8933,194.376 52.56,194.043 52.5,193.5C 53.4834,189.702 53.8168,185.702 53.5,181.5 Z"/></g>
<g><path style="opacity:1" fill="#e44968" d="M 285.5,179.5 C 304.664,189.912 323.331,201.079 341.5,213C 341.333,213.5 341.167,214 341,214.5C 323.582,204.207 306.082,194.04 288.5,184C 286.561,183.092 285.561,181.592 285.5,179.5 Z"/></g>
<g><path style="opacity:1" fill="#d9dff4" d="M 271.5,179.5 C 279.765,183.3 287.765,187.633 295.5,192.5C 296.583,193.365 296.749,194.365 296,195.5C 289.248,191.54 282.414,187.707 275.5,184C 273.365,183.124 272.031,181.624 271.5,179.5 Z"/></g>
<g><path style="opacity:1" fill="#fef5e8" d="M 66.5,189.5 C 67.4959,189.414 68.3292,189.748 69,190.5C 70.0758,193.648 71.4091,196.648 73,199.5C 74.3241,196.756 76.4908,195.423 79.5,195.5C 79.8256,199.884 79.4922,204.217 78.5,208.5C 77.914,208.291 77.414,207.957 77,207.5C 76.6667,205.167 76.3333,202.833 76,200.5C 75.0922,202.439 73.5922,203.439 71.5,203.5C 70.1762,195.256 69.0096,194.923 68,202.5C 67.6667,202.167 67.3333,201.833 67,201.5C 66.5012,197.514 66.3345,193.514 66.5,189.5 Z"/></g>
<g><path style="opacity:1" fill="#fdf4e7" d="M 89.5,212.5 C 89.6716,213.492 89.3382,214.158 88.5,214.5C 86.4809,213.067 84.3143,211.733 82,210.5C 81.3333,206.167 81.3333,201.833 82,197.5C 82.414,197.957 82.914,198.291 83.5,198.5C 84.3253,202.122 84.8253,205.789 85,209.5C 86.6147,210.386 88.1147,211.386 89.5,212.5 Z"/></g>
<g><path style="opacity:1" fill="#d6dcf5" d="M 262.5,195.5 C 266.852,197.673 270.852,200.34 274.5,203.5C 274.167,203.833 273.833,204.167 273.5,204.5C 270.04,202.867 266.706,201.034 263.5,199C 262.663,197.989 262.33,196.822 262.5,195.5 Z"/></g>
<g><path style="opacity:1" fill="#e44968" d="M 282.5,192.5 C 299.806,202.488 317.139,212.488 334.5,222.5C 335.583,223.365 335.749,224.365 335,225.5C 318.745,215.621 302.245,206.121 285.5,197C 283.561,196.092 282.561,194.592 282.5,192.5 Z"/></g>
<g><path style="opacity:1" fill="#d9dff4" d="M 232.5,193.5 C 239.81,196.486 246.477,200.486 252.5,205.5C 252.167,205.833 251.833,206.167 251.5,206.5C 245.833,203.333 240.167,200.167 234.5,197C 233.177,196.184 232.511,195.017 232.5,193.5 Z"/></g>
<g><path style="opacity:1" fill="#d8def4" d="M 252.5,197.5 C 261.94,202.389 271.273,207.555 280.5,213C 281.517,214.049 281.684,215.216 281,216.5C 271.915,211.04 262.749,205.707 253.5,200.5C 252.614,199.675 252.281,198.675 252.5,197.5 Z"/></g>
<g><path style="opacity:1" fill="#d8def4" d="M 284.5,201.5 C 294.966,206.565 304.966,212.398 314.5,219C 314.167,219.5 313.833,220 313.5,220.5C 304.629,215.133 295.629,209.967 286.5,205C 285.177,204.184 284.511,203.017 284.5,201.5 Z"/></g>
<g><path style="opacity:1" fill="#4262da" d="M 232.5,207.5 C 242.678,212.752 252.345,218.752 261.5,225.5C 260.21,226.408 258.877,226.241 257.5,225C 249.5,220.333 241.5,215.667 233.5,211C 232.663,209.989 232.33,208.822 232.5,207.5 Z"/></g>
<g><path style="opacity:1" fill="#d8ddf5" d="M 300.5,196.5 C 311.054,201.446 321.387,206.946 331.5,213C 345.702,221.263 359.702,229.763 373.5,238.5C 373.167,238.833 372.833,239.167 372.5,239.5C 348.833,226 325.167,212.5 301.5,199C 300.748,198.329 300.414,197.496 300.5,196.5 Z"/></g>
<g><path style="opacity:1" fill="#d7dcf5" d="M 276.5,204.5 C 285.137,208.149 293.137,212.816 300.5,218.5C 300.167,218.833 299.833,219.167 299.5,219.5C 292.295,215.133 284.962,210.967 277.5,207C 276.748,206.329 276.414,205.496 276.5,204.5 Z"/></g>
<g><path style="opacity:1" fill="#d8ddf5" d="M 232.5,200.5 C 246.667,207.747 260.334,215.747 273.5,224.5C 272.635,225.583 271.635,225.749 270.5,225C 258.167,217.833 245.833,210.667 233.5,203.5C 232.614,202.675 232.281,201.675 232.5,200.5 Z"/></g>
<g><path style="opacity:1" fill="#d9def4" d="M 343.5,213.5 C 355.435,219.469 367.102,225.969 378.5,233C 379.517,234.049 379.684,235.216 379,236.5C 368.079,229.621 356.913,223.121 345.5,217C 344.177,216.184 343.511,215.017 343.5,213.5 Z"/></g>
<g><path style="opacity:1" fill="#d7ddf5" d="M 318.5,220.5 C 329.945,226.772 341.278,233.272 352.5,240C 353.517,241.049 353.684,242.216 353,243.5C 342.079,236.621 330.913,230.121 319.5,224C 318.663,222.989 318.33,221.822 318.5,220.5 Z"/></g>
<g><path style="opacity:1" fill="#f05877" d="M 464.5,242.5 C 467.24,244.56 470.24,246.226 473.5,247.5C 476.494,250 479.827,252 483.5,253.5C 489.041,254.875 492.874,258.208 495,263.5C 495.667,281.167 495.667,298.833 495,316.5C 492.842,318.494 490.342,319.828 487.5,320.5C 485.838,304.025 484.838,287.358 484.5,270.5C 483.094,267.586 481.094,265.086 478.5,263C 464.665,255.303 450.999,247.47 437.5,239.5C 440.365,237.144 443.532,235.144 447,233.5C 452.793,236.646 458.626,239.646 464.5,242.5 Z"/></g>
<g><path style="opacity:1" fill="#ec455e" d="M 437.5,239.5 C 450.999,247.47 464.665,255.303 478.5,263C 481.094,265.086 483.094,267.586 484.5,270.5C 484.667,287.503 484.5,304.503 484,321.5C 482.989,322.337 481.822,322.67 480.5,322.5C 478.313,321.242 475.98,320.242 473.5,319.5C 470.709,317.265 467.709,315.265 464.5,313.5C 464.167,313.5 463.833,313.5 463.5,313.5C 456.225,308.522 448.559,304.022 440.5,300C 438,298.833 436.167,297 435,294.5C 433.375,276.899 433.041,259.233 434,241.5C 434.816,240.177 435.983,239.511 437.5,239.5 Z"/></g>
<g><path style="opacity:1" fill="#5f6275" d="M 216.5,251.5 C 213.681,253.097 210.681,253.597 207.5,253C 203.946,250.607 200.28,248.44 196.5,246.5C 195.355,245.207 195.689,244.041 197.5,243C 200.217,240.924 203.217,240.257 206.5,241C 210.668,243.25 214.668,245.75 218.5,248.5C 217.807,249.518 217.141,250.518 216.5,251.5 Z"/></g>
<g><path style="opacity:1" fill="#e4a854" d="M 303.5,219.5 C 324.336,230.747 344.669,242.747 364.5,255.5C 363.21,256.408 361.877,256.241 360.5,255C 341.997,243.914 323.33,233.081 304.5,222.5C 303.614,221.675 303.281,220.675 303.5,219.5 Z"/></g>
<g><path style="opacity:1" fill="#e2a857" d="M 383.5,236.5 C 392.636,240.9 401.303,246.067 409.5,252C 409.333,252.5 409.167,253 409,253.5C 400.962,248.633 392.795,243.967 384.5,239.5C 383.614,238.675 383.281,237.675 383.5,236.5 Z"/></g>
<g><path style="opacity:1" fill="#5e6174" d="M 196.5,247.5 C 199.989,250.137 203.655,252.637 207.5,255C 202.599,259.621 196.932,262.288 190.5,263C 187.09,260.628 183.423,258.795 179.5,257.5C 178.374,256.142 178.374,254.808 179.5,253.5C 183.297,251.533 186.964,249.366 190.5,247C 192.545,246.51 194.545,246.677 196.5,247.5 Z"/></g>
<g><path style="opacity:1" fill="#d8def5" d="M 375.5,239.5 C 387.472,245.15 398.805,251.817 409.5,259.5C 408.21,260.408 406.877,260.241 405.5,259C 397.092,253.601 388.425,248.601 379.5,244C 377.365,243.124 376.031,241.624 375.5,239.5 Z"/></g>
<g><path style="opacity:1" fill="#d8def4" d="M 338.5,225.5 C 358.297,235.897 377.631,247.064 396.5,259C 396.15,260.257 395.483,260.591 394.5,260C 376.331,249.081 357.997,238.414 339.5,228C 338.748,227.329 338.414,226.496 338.5,225.5 Z"/></g>
<g><path style="opacity:1" fill="#606376" d="M 236.5,258.5 C 234.204,262.149 230.871,263.982 226.5,264C 222.25,261.626 218.084,259.126 214,256.5C 213.333,255.833 213.333,255.167 214,254.5C 215.652,253.601 217.152,252.601 218.5,251.5C 220.068,250.527 221.735,250.36 223.5,251C 227.861,253.512 232.194,256.012 236.5,258.5 Z"/></g>
<g><path style="opacity:1" fill="#5d6073" d="M 179.5,257.5 C 185.978,261.576 192.311,265.91 198.5,270.5C 193.4,274.552 187.733,277.219 181.5,278.5C 178.024,275.377 174.024,273.043 169.5,271.5C 166.567,269.355 163.567,267.188 160.5,265C 164.666,262.083 168.999,259.416 173.5,257C 175.545,256.51 177.545,256.677 179.5,257.5 Z"/></g>
<g><path style="opacity:1" fill="#5e6174" d="M 241.5,261.5 C 245.483,263.806 249.483,266.139 253.5,268.5C 254.562,269.425 254.562,270.425 253.5,271.5C 251.33,272.749 248.996,273.749 246.5,274.5C 240.888,272.695 235.888,269.862 231.5,266C 234.228,263.135 237.562,261.635 241.5,261.5 Z"/></g>
<g><path style="opacity:1" fill="#d8ddf5" d="M 399.5,260.5 C 402.589,261.739 405.589,263.239 408.5,265C 409.517,266.049 409.684,267.216 409,268.5C 406.749,266.623 404.249,265.123 401.5,264C 400.177,263.184 399.511,262.017 399.5,260.5 Z"/></g>
<g><path style="opacity:1" fill="#d8def4" d="M 356.5,242.5 C 374.498,252.497 392.165,262.997 409.5,274C 409.333,274.5 409.167,275 409,275.5C 391.833,265.667 374.667,255.833 357.5,246C 356.663,244.989 356.33,243.822 356.5,242.5 Z"/></g>
<g><path style="opacity:1" fill="#fef1f3" d="M 438.5,263.5 C 444.286,265.194 447.952,268.861 449.5,274.5C 449.43,275.772 449.097,276.938 448.5,278C 446.331,278.429 444.331,277.929 442.5,276.5C 441.833,277.5 441.167,278.5 440.5,279.5C 439.914,279.291 439.414,278.957 439,278.5C 438.501,273.511 438.334,268.511 438.5,263.5 Z"/></g>
<g><path style="opacity:1" fill="#e64765" d="M 369.5,257.5 C 375.178,260.336 380.511,263.669 385.5,267.5C 385.167,267.833 384.833,268.167 384.5,268.5C 379.833,265.833 375.167,263.167 370.5,260.5C 369.614,259.675 369.281,258.675 369.5,257.5 Z"/></g>
<g><path style="opacity:1" fill="#5d6073" d="M 169.5,271.5 C 172.976,274.623 176.976,276.957 181.5,278.5C 182.315,279.837 183.482,280.837 185,281.5C 185.667,282.167 185.667,282.833 185,283.5C 180.809,286.512 176.309,288.845 171.5,290.5C 163.53,286.515 155.53,282.515 147.5,278.5C 146.426,277.115 145.093,275.949 143.5,275C 147.666,272.083 151.999,269.416 156.5,267C 157.833,266.333 159.167,266.333 160.5,267C 163.243,269.038 166.243,270.538 169.5,271.5 Z"/></g>
<g><path style="opacity:1" fill="#ed4860" d="M 441.5,268.5 C 444.621,269.288 446.288,271.288 446.5,274.5C 442.554,274.512 440.887,272.512 441.5,268.5 Z"/></g>
<g><path style="opacity:1" fill="#5f6275" d="M 272.5,279.5 C 269.954,283.508 266.287,285.008 261.5,284C 257.332,281.75 253.332,279.25 249.5,276.5C 251.015,274.918 252.681,273.584 254.5,272.5C 256.068,271.527 257.735,271.36 259.5,272C 263.861,274.512 268.194,277.012 272.5,279.5 Z"/></g>
<g><path style="opacity:1" fill="#feedef" d="M 451.5,271.5 C 452.496,271.414 453.329,271.748 454,272.5C 453.408,277.059 455.241,280.059 459.5,281.5C 460.167,279.833 460.833,278.167 461.5,276.5C 462.086,276.709 462.586,277.043 463,277.5C 463.667,282.5 463.667,287.5 463,292.5C 462.586,292.043 462.086,291.709 461.5,291.5C 460.786,288.973 460.12,286.473 459.5,284C 457.919,283.293 456.419,282.46 455,281.5C 454.667,283.5 454.333,285.5 454,287.5C 453.586,287.043 453.086,286.709 452.5,286.5C 451.506,281.544 451.173,276.544 451.5,271.5 Z"/></g>
<g><path style="opacity:1" fill="#ec7389" d="M 484.5,270.5 C 484.838,287.358 485.838,304.025 487.5,320.5C 486.205,321.488 484.872,322.488 483.5,323.5C 482.209,323.737 481.209,323.404 480.5,322.5C 481.822,322.67 482.989,322.337 484,321.5C 484.5,304.503 484.667,287.503 484.5,270.5 Z"/></g>
<g><path style="opacity:1" fill="#c0c4d2" d="M 169.5,271.5 C 174.024,273.043 178.024,275.377 181.5,278.5C 176.976,276.957 172.976,274.623 169.5,271.5 Z"/></g>
<g><path style="opacity:1" fill="#5d6073" d="M 147.5,278.5 C 156.935,284.725 166.602,290.725 176.5,296.5C 172.343,300.471 167.509,303.471 162,305.5C 151.435,299.801 140.935,293.967 130.5,288C 128.937,287.241 127.937,286.074 127.5,284.5C 132.242,281.712 137.075,279.045 142,276.5C 143.8,277.32 145.634,277.986 147.5,278.5 Z"/></g>
<g><path style="opacity:1" fill="#feeef0" d="M 466.5,280.5 C 474.297,281.96 477.963,286.626 477.5,294.5C 474.843,294.838 472.51,294.171 470.5,292.5C 469.833,293.5 469.167,294.5 468.5,295.5C 467.914,295.291 467.414,294.957 467,294.5C 466.501,289.845 466.334,285.179 466.5,280.5 Z"/></g>
<g><path style="opacity:1" fill="#5e6174" d="M 277.5,282.5 C 281.357,284.839 285.357,287.006 289.5,289C 290.684,290.145 290.684,291.312 289.5,292.5C 287.33,293.749 284.996,294.749 282.5,295.5C 277.213,293.189 272.213,290.356 267.5,287C 270.228,284.135 273.562,282.635 277.5,282.5 Z"/></g>
<g><path style="opacity:1" fill="#ef576b" d="M 469.5,284.5 C 473.49,285.46 474.823,287.793 473.5,291.5C 470.013,290.478 468.68,288.145 469.5,284.5 Z"/></g>
<g><path style="opacity:1" fill="#5e6174" d="M 125.5,286.5 C 129.979,289.243 134.312,292.243 138.5,295.5C 133.769,298.524 129.102,301.524 124.5,304.5C 118.311,302.836 112.645,300.003 107.5,296C 112.966,291.672 118.966,288.505 125.5,286.5 Z"/></g>
<g><path style="opacity:1" fill="#5f6275" d="M 308.5,302.5 C 306.577,302.795 304.91,303.628 303.5,305C 296.822,304.505 290.822,302.005 285.5,297.5C 287.015,295.918 288.681,294.584 290.5,293.5C 292.068,292.527 293.735,292.36 295.5,293C 299.626,294.966 303.626,297.132 307.5,299.5C 308.386,300.325 308.719,301.325 308.5,302.5 Z"/></g>
<g><path style="opacity:1" fill="#5e6174" d="M 141.5,314.5 C 135.628,312.898 130.295,310.231 125.5,306.5C 125.369,305.624 125.702,304.957 126.5,304.5C 130.167,302.333 133.833,300.167 137.5,298C 139.365,296.699 141.365,296.365 143.5,297C 147.53,299.677 151.53,302.344 155.5,305C 155.355,305.772 155.022,306.439 154.5,307C 150.104,309.527 145.771,312.027 141.5,314.5 Z"/></g>
<g><path style="opacity:1" fill="#5f6275" d="M 313.5,303.5 C 317.606,305.388 321.606,307.554 325.5,310C 326.684,311.145 326.684,312.312 325.5,313.5C 323.037,314.233 320.703,315.233 318.5,316.5C 313.711,314.272 309.045,311.772 304.5,309C 303.289,308.107 303.289,307.274 304.5,306.5C 307.234,304.629 310.234,303.629 313.5,303.5 Z"/></g>
<g><path style="opacity:1" fill="#5d6173" d="M 159.5,324.5 C 152.795,323.316 147.128,320.316 142.5,315.5C 147.305,312.929 151.972,310.096 156.5,307C 162.676,308.251 168.343,310.918 173.5,315C 168.941,318.437 164.274,321.604 159.5,324.5 Z"/></g>
<g><path style="opacity:1" fill="#5f6274" d="M 327.5,313.5 C 333.794,314.814 339.461,317.48 344.5,321.5C 341.954,325.508 338.287,327.008 333.5,326C 329.156,323.829 325.156,321.163 321.5,318C 323.747,316.723 325.747,315.223 327.5,313.5 Z"/></g>
<g><path style="opacity:1" fill="#5d6073" d="M 180.5,336.5 C 178.011,336.702 175.677,336.202 173.5,335C 168.382,332.361 163.715,329.195 159.5,325.5C 164.473,322.679 169.473,319.845 174.5,317C 181.745,319.125 188.411,322.625 194.5,327.5C 189.816,330.526 185.149,333.526 180.5,336.5 Z"/></g>
<g><path style="opacity:1" fill="#606376" d="M 346.5,323.5 C 351.715,325.441 356.715,327.941 361.5,331C 362.684,332.145 362.684,333.312 361.5,334.5C 359.037,335.233 356.703,336.233 354.5,337.5C 349.005,335.255 344.005,332.255 339.5,328.5C 342.077,327.057 344.41,325.39 346.5,323.5 Z"/></g>
<g><path style="opacity:1" fill="#cfd3e0" d="M 196.5,246.5 C 200.28,248.44 203.946,250.607 207.5,253C 210.681,253.597 213.681,253.097 216.5,251.5C 217.167,251.5 217.833,251.5 218.5,251.5C 217.152,252.601 215.652,253.601 214,254.5C 213.333,255.167 213.333,255.833 214,256.5C 218.084,259.126 222.25,261.626 226.5,264C 230.871,263.982 234.204,262.149 236.5,258.5C 238.039,259.767 239.706,260.767 241.5,261.5C 237.562,261.635 234.228,263.135 231.5,266C 235.888,269.862 240.888,272.695 246.5,274.5C 248.996,273.749 251.33,272.749 253.5,271.5C 253.5,272.167 253.833,272.5 254.5,272.5C 252.681,273.584 251.015,274.918 249.5,276.5C 253.332,279.25 257.332,281.75 261.5,284C 266.287,285.008 269.954,283.508 272.5,279.5C 274.039,280.767 275.706,281.767 277.5,282.5C 273.562,282.635 270.228,284.135 267.5,287C 272.213,290.356 277.213,293.189 282.5,295.5C 284.996,294.749 287.33,293.749 289.5,292.5C 289.5,293.167 289.833,293.5 290.5,293.5C 288.681,294.584 287.015,295.918 285.5,297.5C 290.822,302.005 296.822,304.505 303.5,305C 304.91,303.628 306.577,302.795 308.5,302.5C 310.415,302.216 312.081,302.549 313.5,303.5C 310.234,303.629 307.234,304.629 304.5,306.5C 303.289,307.274 303.289,308.107 304.5,309C 309.045,311.772 313.711,314.272 318.5,316.5C 320.703,315.233 323.037,314.233 325.5,313.5C 326.167,313.5 326.833,313.5 327.5,313.5C 325.747,315.223 323.747,316.723 321.5,318C 325.156,321.163 329.156,323.829 333.5,326C 338.287,327.008 341.954,325.508 344.5,321.5C 345.167,322.167 345.833,322.833 346.5,323.5C 344.41,325.39 342.077,327.057 339.5,328.5C 344.005,332.255 349.005,335.255 354.5,337.5C 356.703,336.233 359.037,335.233 361.5,334.5C 362.167,334.5 362.833,334.5 363.5,334.5C 361.747,336.223 359.747,337.723 357.5,339C 362.653,343.917 368.653,346.584 375.5,347C 377.692,345.933 379.358,344.433 380.5,342.5C 381.167,343.167 381.833,343.833 382.5,344.5C 380.41,346.39 378.077,348.057 375.5,349.5C 380.239,352.9 385.239,355.9 390.5,358.5C 392.703,357.233 395.037,356.233 397.5,355.5C 398.167,355.5 398.833,355.5 399.5,355.5C 397.747,357.223 395.747,358.723 393.5,360C 397.666,362.917 401.999,365.584 406.5,368C 410.692,368.404 414.025,366.904 416.5,363.5C 417.167,364.167 417.833,364.833 418.5,365.5C 416.849,366.97 415.015,368.303 413,369.5C 412.493,370.996 412.993,372.163 414.5,373C 417.661,374.413 420.661,376.08 423.5,378C 426.221,378.602 428.887,378.435 431.5,377.5C 431.5,378.167 431.833,378.5 432.5,378.5C 431.571,379.315 430.571,380.148 429.5,381C 433.898,383.857 438.232,386.691 442.5,389.5C 441.833,389.5 441.5,389.833 441.5,390.5C 434.528,386.345 427.528,382.178 420.5,378C 418.455,377.51 416.455,377.677 414.5,378.5C 415.881,376.726 415.548,375.226 413.5,374C 410.167,372 406.833,370 403.5,368C 402.167,367.333 400.833,367.333 399.5,368C 397.423,369.705 395.09,370.872 392.5,371.5C 391.251,373.136 389.584,374.303 387.5,375C 386.748,375.671 386.414,376.504 386.5,377.5C 390.836,379.332 394.836,381.665 398.5,384.5C 395.988,383.072 393.322,382.572 390.5,383C 385.999,385.416 381.666,388.083 377.5,391C 381.233,393.523 384.899,396.023 388.5,398.5C 386.407,397.955 384.407,397.122 382.5,396C 375.955,396.267 370.289,398.767 365.5,403.5C 374.195,408.844 382.861,414.178 391.5,419.5C 390.833,419.5 390.5,419.833 390.5,420.5C 378.469,413.312 366.303,406.312 354,399.5C 348.727,401.881 343.894,404.881 339.5,408.5C 344.898,411.858 350.231,415.192 355.5,418.5C 354.833,418.5 354.5,418.833 354.5,419.5C 350.134,416.65 345.467,414.317 340.5,412.5C 334.853,414.989 329.52,417.989 324.5,421.5C 324.5,421.167 324.5,420.833 324.5,420.5C 326.469,418.841 328.469,417.175 330.5,415.5C 326.106,411.881 321.273,408.881 316,406.5C 313.251,407.457 310.751,408.79 308.5,410.5C 308.5,410.167 308.5,409.833 308.5,409.5C 311.933,406.941 315.599,404.608 319.5,402.5C 319.833,402 320.167,401.5 320.5,401C 319.728,399.779 318.728,398.779 317.5,398C 313.989,395.495 310.156,393.661 306,392.5C 301.297,394.435 296.797,396.768 292.5,399.5C 292.158,398.662 291.492,398.328 290.5,398.5C 294.471,395.844 298.471,393.177 302.5,390.5C 296.719,385.112 290.053,381.612 282.5,380C 278.139,382.512 273.806,385.012 269.5,387.5C 269.5,386.833 269.167,386.5 268.5,386.5C 272.928,383.923 277.261,381.09 281.5,378C 254.495,361.495 227.162,345.495 199.5,330C 197.833,329.333 196.167,329.333 194.5,330C 190.845,332.827 186.845,334.993 182.5,336.5C 181.833,336.5 181.167,336.5 180.5,336.5C 185.149,333.526 189.816,330.526 194.5,327.5C 188.411,322.625 181.745,319.125 174.5,317C 169.473,319.845 164.473,322.679 159.5,325.5C 159.5,325.167 159.5,324.833 159.5,324.5C 164.274,321.604 168.941,318.437 173.5,315C 168.343,310.918 162.676,308.251 156.5,307C 151.972,310.096 147.305,312.929 142.5,315.5C 142.5,314.833 142.167,314.5 141.5,314.5C 145.771,312.027 150.104,309.527 154.5,307C 155.022,306.439 155.355,305.772 155.5,305C 151.53,302.344 147.53,299.677 143.5,297C 141.365,296.365 139.365,296.699 137.5,298C 133.833,300.167 130.167,302.333 126.5,304.5C 125.702,304.957 125.369,305.624 125.5,306.5C 124.662,306.158 124.328,305.492 124.5,304.5C 129.102,301.524 133.769,298.524 138.5,295.5C 134.312,292.243 129.979,289.243 125.5,286.5C 126.167,285.833 126.833,285.167 127.5,284.5C 127.937,286.074 128.937,287.241 130.5,288C 140.935,293.967 151.435,299.801 162,305.5C 167.509,303.471 172.343,300.471 176.5,296.5C 166.602,290.725 156.935,284.725 147.5,278.5C 155.53,282.515 163.53,286.515 171.5,290.5C 176.309,288.845 180.809,286.512 185,283.5C 185.667,282.833 185.667,282.167 185,281.5C 183.482,280.837 182.315,279.837 181.5,278.5C 187.733,277.219 193.4,274.552 198.5,270.5C 192.311,265.91 185.978,261.576 179.5,257.5C 183.423,258.795 187.09,260.628 190.5,263C 196.932,262.288 202.599,259.621 207.5,255C 203.655,252.637 199.989,250.137 196.5,247.5C 196.5,247.167 196.5,246.833 196.5,246.5 Z"/></g>
<g><path style="opacity:1" fill="#5d6073" d="M 291.5,322.5 C 295.314,324.913 298.981,327.579 302.5,330.5C 297.76,335.205 292.094,337.705 285.5,338C 281.296,335.736 277.296,333.236 273.5,330.5C 278.569,325.63 284.569,322.963 291.5,322.5 Z"/></g>
<g><path style="opacity:1" fill="#5d6073" d="M 227.5,324.5 C 229.248,325.789 229.581,327.289 228.5,329C 224.993,331.254 221.327,333.254 217.5,335C 211.068,334.288 205.401,331.621 200.5,327C 205.99,322.575 211.99,319.909 218.5,319C 215.273,316.888 211.94,315.055 208.5,313.5C 208.414,312.504 208.748,311.671 209.5,311C 212.833,309 216.167,307 219.5,305C 223.909,304.195 227.909,305.195 231.5,308C 233.001,309.252 234.668,310.252 236.5,311C 237.451,311.718 237.617,312.551 237,313.5C 232.057,317.222 226.557,319.722 220.5,321C 222.886,322.193 225.22,323.36 227.5,324.5 Z"/></g>
<g><path style="opacity:1" fill="#5e6173" d="M 312.5,317.5 C 318.689,319.164 324.355,321.997 329.5,326C 325.334,328.917 321.001,331.584 316.5,334C 310.324,332.749 304.657,330.082 299.5,326C 303.898,323.143 308.232,320.309 312.5,317.5 Z"/></g>
<g><path style="opacity:1" fill="#5d6073" d="M 250.5,318.5 C 251.8,319.827 253.133,321.16 254.5,322.5C 251.217,325.482 247.551,327.982 243.5,330C 241.527,330.495 239.527,330.662 237.5,330.5C 234.506,328 231.173,326 227.5,324.5C 226.119,322.726 226.452,321.226 228.5,320C 231.661,318.587 234.661,316.92 237.5,315C 239.5,314.333 241.5,314.333 243.5,315C 245.577,316.705 247.91,317.872 250.5,318.5 Z"/></g>
<g><path style="opacity:1" fill="#5e6174" d="M 272.5,311.5 C 276.768,314.309 281.102,317.143 285.5,320C 281.18,323.742 276.347,326.575 271,328.5C 266.126,326.637 261.459,324.303 257,321.5C 256.251,320.365 256.417,319.365 257.5,318.5C 262.188,315.32 267.188,312.987 272.5,311.5 Z"/></g>
<g><path style="opacity:1" fill="#5e6174" d="M 291.5,322.5 C 288.349,320.417 285.349,318.084 282.5,315.5C 287.57,311.29 293.237,308.79 299.5,308C 303.874,310.181 307.874,312.848 311.5,316C 307.874,319.152 303.874,321.819 299.5,324C 296.678,324.428 294.012,323.928 291.5,322.5 Z"/></g>
<g><path style="opacity:1" fill="#5d6073" d="M 255.5,301.5 C 259.482,304.476 263.482,307.476 267.5,310.5C 262.67,315.009 257.003,317.676 250.5,318.5C 246.813,315.5 242.813,312.834 238.5,310.5C 243.485,306.175 249.152,303.175 255.5,301.5 Z"/></g>
<g><path style="opacity:1" fill="#5e6174" d="M 208.5,313.5 C 209.8,314.827 211.133,316.16 212.5,317.5C 208.008,320.828 203.175,323.495 198,325.5C 192.825,323.495 187.992,320.828 183.5,317.5C 183.977,316.522 184.643,315.689 185.5,315C 189.941,312.228 194.608,309.894 199.5,308C 197.945,306.711 196.279,306.044 194.5,306C 195.458,307.147 195.125,308.147 193.5,309C 189.266,311.409 184.933,313.576 180.5,315.5C 175.213,313.189 170.213,310.356 165.5,307C 170.765,303.201 176.432,300.201 182.5,298C 179.397,296.719 176.731,294.886 174.5,292.5C 177.109,289.856 180.109,287.689 183.5,286C 185.034,285.077 186.701,284.577 188.5,284.5C 193.309,286.155 197.809,288.488 202,291.5C 202.667,292.167 202.667,292.833 202,293.5C 200.745,294.211 199.579,295.044 198.5,296C 201.652,294.814 204.985,294.481 208.5,295C 211.706,297.034 215.04,298.867 218.5,300.5C 219.583,301.365 219.749,302.365 219,303.5C 216.252,305.458 213.418,307.291 210.5,309C 207.57,310.659 204.57,310.992 201.5,310C 203.577,311.705 205.91,312.872 208.5,313.5 Z"/></g>
<g><path style="opacity:1" fill="#c1c5d2" d="M 184.5,300.5 C 186.588,300.135 188.921,300.135 191.5,300.5C 191.719,301.675 191.386,302.675 190.5,303.5C 188.473,302.487 186.473,301.487 184.5,300.5 Z"/></g>
<g><path style="opacity:1" fill="#5e6173" d="M 272.5,311.5 C 270.012,309.745 267.678,307.745 265.5,305.5C 269.296,302.764 273.296,300.264 277.5,298C 283.763,298.79 289.43,301.29 294.5,305.5C 290.106,309.119 285.273,312.119 280,314.5C 277.535,313.349 275.035,312.349 272.5,311.5 Z"/></g>
<g><path style="opacity:1" fill="#5d6073" d="M 248.5,297.5 C 250.931,299.068 250.931,300.568 248.5,302C 244.44,304.696 240.107,306.863 235.5,308.5C 230.343,306.424 225.676,303.591 221.5,300C 225.676,296.409 230.343,293.576 235.5,291.5C 239.699,293.766 244.033,295.766 248.5,297.5 Z"/></g>
<g><path style="opacity:1" fill="#5d6073" d="M 255.5,301.5 C 253.664,299.412 251.331,298.079 248.5,297.5C 247.438,296.425 247.438,295.425 248.5,294.5C 252.167,292.333 255.833,290.167 259.5,288C 265.636,288.31 271.136,290.476 276,294.5C 276.507,295.996 276.007,297.163 274.5,298C 271.5,299.667 268.5,301.333 265.5,303C 261.979,303.691 258.645,303.191 255.5,301.5 Z"/></g>
<g><path style="opacity:1" fill="#5d6073" d="M 212.5,283.5 C 215.012,282.072 217.678,281.572 220.5,282C 224.874,284.181 228.874,286.848 232.5,290C 229.547,292.816 226.213,295.149 222.5,297C 220.635,298.301 218.635,298.635 216.5,298C 211.999,295.584 207.666,292.917 203.5,290C 206.567,287.812 209.567,285.645 212.5,283.5 Z"/></g>
<g><path style="opacity:1" fill="#5d6073" d="M 242.5,277.5 C 245.794,277.259 248.794,278.092 251.5,280C 253.67,281.586 256.004,282.92 258.5,284C 259.451,284.718 259.617,285.551 259,286.5C 254.809,289.512 250.309,291.845 245.5,293.5C 240.214,292.107 235.381,289.774 231,286.5C 230.333,285.833 230.333,285.167 231,284.5C 234.814,282.016 238.647,279.682 242.5,277.5 Z"/></g>
<g><path style="opacity:1" fill="#5d6073" d="M 212.5,283.5 C 208.7,284.9 205.034,286.567 201.5,288.5C 196.213,286.189 191.213,283.356 186.5,280C 191.213,276.644 196.213,273.811 201.5,271.5C 206.657,273.576 211.324,276.409 215.5,280C 214.456,281.174 213.456,282.341 212.5,283.5 Z"/></g>
<g><path style="opacity:1" fill="#5d6073" d="M 224.5,267.5 C 227.32,267.248 229.986,267.748 232.5,269C 234.67,270.586 237.004,271.92 239.5,273C 241.007,273.837 241.507,275.004 241,276.5C 236.179,280.718 230.679,282.885 224.5,283C 220.332,280.75 216.332,278.25 212.5,275.5C 216.565,272.81 220.565,270.143 224.5,267.5 Z"/></g>
<g><path style="opacity:1" fill="#5d6073" d="M 208.5,256.5 C 213.963,258.482 219.129,261.149 224,264.5C 224.667,265.167 224.667,265.833 224,266.5C 219.739,269.63 215.072,271.964 210,273.5C 206.149,271.826 202.316,269.992 198.5,268C 196.745,267.28 195.911,266.113 196,264.5C 200.316,261.934 204.483,259.267 208.5,256.5 Z"/></g>
<g><path style="opacity:1" fill="#5e6173" d="M 329.5,344.5 C 325.836,341.665 321.836,339.332 317.5,337.5C 317.281,336.325 317.614,335.325 318.5,334.5C 322.297,332.533 325.964,330.366 329.5,328C 336.19,328.678 341.857,331.512 346.5,336.5C 341.4,340.552 335.733,343.219 329.5,344.5 Z"/></g>
<g><path style="opacity:1" fill="#5c5f72" d="M 268.5,386.5 C 266.119,387.83 263.786,387.664 261.5,386C 235.082,370.374 208.582,354.874 182,339.5C 181.53,338.423 181.697,337.423 182.5,336.5C 186.845,334.993 190.845,332.827 194.5,330C 196.167,329.333 197.833,329.333 199.5,330C 227.162,345.495 254.495,361.495 281.5,378C 277.261,381.09 272.928,383.923 268.5,386.5 Z"/></g>
<g><path style="opacity:1" fill="#5d6073" d="M 253.5,339.5 C 251.565,338.19 249.565,336.857 247.5,335.5C 247.331,336.397 246.998,337.397 246.5,338.5C 242.833,340.667 239.167,342.833 235.5,345C 232.217,345.743 229.217,345.076 226.5,343C 224.33,341.414 221.996,340.08 219.5,339C 218.549,338.282 218.383,337.449 219,336.5C 222.416,334.208 225.916,332.041 229.5,330C 232.221,329.398 234.887,329.565 237.5,330.5C 239.435,331.81 241.435,333.143 243.5,334.5C 243.554,333.47 243.888,332.303 244.5,331C 247.833,329 251.167,327 254.5,325C 257.303,324.245 259.97,324.578 262.5,326C 265.5,327.833 268.5,329.667 271.5,331.5C 272.521,332.002 272.688,332.668 272,333.5C 268.5,335.667 265,337.833 261.5,340C 258.779,340.602 256.113,340.435 253.5,339.5 Z"/></g>
<g><path style="opacity:1" fill="#5d6073" d="M 317.5,337.5 C 320.018,339.357 320.018,341.19 317.5,343C 313.568,345.135 309.568,346.968 305.5,348.5C 300.109,346.637 295.109,343.97 290.5,340.5C 295.109,337.03 300.109,334.363 305.5,332.5C 309.471,334.149 313.471,335.816 317.5,337.5 Z"/></g>
<g><path style="opacity:1" fill="#5f6275" d="M 363.5,334.5 C 369.794,335.814 375.461,338.48 380.5,342.5C 379.358,344.433 377.692,345.933 375.5,347C 368.653,346.584 362.653,343.917 357.5,339C 359.747,337.723 361.747,336.223 363.5,334.5 Z"/></g>
<g><path style="opacity:1" fill="#5e6173" d="M 347.5,337.5 C 352.812,338.987 357.812,341.32 362.5,344.5C 363.583,345.365 363.749,346.365 363,347.5C 358.856,350.489 354.356,352.822 349.5,354.5C 343.888,352.695 338.888,349.862 334.5,346C 338.898,343.143 343.232,340.309 347.5,337.5 Z"/></g>
<g><path style="opacity:1" fill="#5d6073" d="M 270.5,349.5 C 268.565,348.19 266.565,346.857 264.5,345.5C 264.446,346.53 264.112,347.697 263.5,349C 259.393,351.72 255.06,353.887 250.5,355.5C 245.109,353.637 240.109,350.97 235.5,347.5C 240.517,342.659 246.517,339.992 253.5,339.5C 255.089,341.306 257.089,342.639 259.5,343.5C 264.155,339.59 269.322,336.59 275,334.5C 279.704,336.195 284.204,338.361 288.5,341C 289.727,342.587 289.394,343.921 287.5,345C 284.5,346.667 281.5,348.333 278.5,350C 275.779,350.602 273.113,350.435 270.5,349.5 Z"/></g>
<g><path style="opacity:1" fill="#cbd1de" d="M 15.5,339.5 C 97.6867,387.505 180.02,435.339 262.5,483C 271.144,488.003 279.977,492.503 289,496.5C 297.341,492.746 305.508,488.579 313.5,484C 367.194,452.488 420.861,420.988 474.5,389.5C 474.666,394.511 474.499,399.511 474,404.5C 472.482,406.348 470.649,407.848 468.5,409C 437.336,426.748 406.336,444.748 375.5,463C 348.918,475.527 322.251,487.86 295.5,500C 290.314,502.226 285.314,501.893 280.5,499C 192.251,447.96 104.085,396.793 16,345.5C 15.5045,343.527 15.3379,341.527 15.5,339.5 Z"/></g>
<g><path style="opacity:1" fill="#5d6073" d="M 329.5,344.5 C 332.099,346.479 334.765,348.479 337.5,350.5C 332.711,355.233 327.045,357.733 320.5,358C 317.929,356.546 315.262,355.38 312.5,354.5C 311.2,353.173 309.867,351.84 308.5,350.5C 312.635,346.68 317.468,344.013 323,342.5C 325.226,343.033 327.393,343.7 329.5,344.5 Z"/></g>
<g><path style="opacity:1" fill="#cad0dd" d="M 163.5,345.5 C 166.649,345.211 169.649,345.711 172.5,347C 202.58,364.122 232.413,381.622 262,399.5C 262.667,400.167 262.667,400.833 262,401.5C 243.915,412.126 225.748,422.626 207.5,433C 205.5,433.667 203.5,433.667 201.5,433C 173.33,416.414 144.997,400.081 116.5,384C 113.764,382.638 111.431,380.804 109.5,378.5C 109.977,377.522 110.643,376.689 111.5,376C 129.061,366.059 146.394,355.892 163.5,345.5 Z"/></g>
<g><path style="opacity:1" fill="#606376" d="M 382.5,344.5 C 387.464,345.949 392.131,348.115 396.5,351C 398.548,352.226 398.881,353.726 397.5,355.5C 395.037,356.233 392.703,357.233 390.5,358.5C 385.239,355.9 380.239,352.9 375.5,349.5C 378.077,348.057 380.41,346.39 382.5,344.5 Z"/></g>
<g><path style="opacity:1" fill="#5e6173" d="M 360.5,362.5 C 357.901,360.521 355.235,358.521 352.5,356.5C 356.287,353.433 360.287,350.6 364.5,348C 365.833,347.333 367.167,347.333 368.5,348C 373.212,350.349 377.545,353.183 381.5,356.5C 377.668,359.25 373.668,361.75 369.5,364C 366.319,364.597 363.319,364.097 360.5,362.5 Z"/></g>
<g><path style="opacity:1" fill="#5d6073" d="M 270.5,349.5 C 274.554,351.857 278.221,354.69 281.5,358C 276.824,362.841 271.157,365.174 264.5,365C 260.916,362.959 257.416,360.792 254,358.5C 253.383,357.551 253.549,356.718 254.5,356C 259.352,352.399 264.685,350.233 270.5,349.5 Z"/></g>
<g><path style="opacity:1" fill="#8894d0" d="M 463.5,313.5 C 463.833,313.5 464.167,313.5 464.5,313.5C 464.833,329.181 464.499,344.848 463.5,360.5C 462.893,360.376 462.56,360.043 462.5,359.5C 463.496,344.342 463.83,329.009 463.5,313.5 Z"/></g>
<g><path style="opacity:1" fill="#5d6073" d="M 337.5,352.5 C 343.365,353.263 348.698,355.429 353.5,359C 354.451,359.718 354.617,360.551 354,361.5C 349.373,366.07 343.873,368.236 337.5,368C 333.296,365.736 329.296,363.236 325.5,360.5C 329.565,357.81 333.565,355.143 337.5,352.5 Z"/></g>
<g><path style="opacity:1" fill="#5e6174" d="M 399.5,355.5 C 406.043,356.394 411.71,359.061 416.5,363.5C 414.025,366.904 410.692,368.404 406.5,368C 401.999,365.584 397.666,362.917 393.5,360C 395.747,358.723 397.747,357.223 399.5,355.5 Z"/></g>
<g><path style="opacity:1" fill="#5d6073" d="M 392.5,371.5 C 390.407,372.045 388.407,372.878 386.5,374C 384.833,374.667 383.167,374.667 381.5,374C 377.332,371.75 373.332,369.25 369.5,366.5C 373.894,362.881 378.727,359.881 384,357.5C 388.813,359.907 393.48,362.573 398,365.5C 398.667,366.167 398.667,366.833 398,367.5C 395.833,368.488 394,369.821 392.5,371.5 Z"/></g>
<g><path style="opacity:1" fill="#5d6073" d="M 360.5,362.5 C 364.609,365.066 368.609,367.899 372.5,371C 367.578,374.795 362.244,377.461 356.5,379C 351.97,376.573 347.637,373.906 343.5,371C 345.714,368.542 348.381,366.542 351.5,365C 354.206,363.092 357.206,362.259 360.5,362.5 Z"/></g>
<g><path style="opacity:1" fill="#5f6274" d="M 418.5,365.5 C 424.693,366.931 430.026,369.931 434.5,374.5C 433.66,375.735 432.66,376.735 431.5,377.5C 428.887,378.435 426.221,378.602 423.5,378C 420.661,376.08 417.661,374.413 414.5,373C 412.993,372.163 412.493,370.996 413,369.5C 415.015,368.303 416.849,366.97 418.5,365.5 Z"/></g>
<g><path style="opacity:1" fill="#5d6073" d="M 414.5,378.5 C 410.577,379.795 406.91,381.628 403.5,384C 401.866,384.494 400.199,384.66 398.5,384.5C 394.836,381.665 390.836,379.332 386.5,377.5C 386.414,376.504 386.748,375.671 387.5,375C 389.584,374.303 391.251,373.136 392.5,371.5C 395.09,370.872 397.423,369.705 399.5,368C 400.833,367.333 402.167,367.333 403.5,368C 406.833,370 410.167,372 413.5,374C 415.548,375.226 415.881,376.726 414.5,378.5 Z"/></g>
<g><path style="opacity:1" fill="#5e6174" d="M 312.5,354.5 C 316.339,357.496 320.339,360.33 324.5,363C 319.768,367.034 314.435,370.034 308.5,372C 310.055,373.289 311.721,373.956 313.5,374C 312.167,373.333 312.167,372.667 313.5,372C 318.045,369.228 322.711,366.728 327.5,364.5C 332.787,366.811 337.787,369.644 342.5,373C 337.355,377.003 331.689,379.836 325.5,381.5C 322.738,379.275 319.738,377.275 316.5,375.5C 316.446,376.687 316.113,378.02 315.5,379.5C 310.843,382.838 305.843,385.004 300.5,386C 296.13,383.153 291.797,380.32 287.5,377.5C 291.704,374.8 296.037,372.3 300.5,370C 308.205,370.784 308.205,369.617 300.5,366.5C 295.949,370.698 290.782,374.031 285,376.5C 279.727,374.119 274.894,371.119 270.5,367.5C 275.384,363.12 281.051,360.286 287.5,359C 284.109,357.311 281.109,355.144 278.5,352.5C 282.296,349.764 286.296,347.264 290.5,345C 291.833,344.333 293.167,344.333 294.5,345C 299.001,347.416 303.334,350.083 307.5,353C 302.458,356.521 297.125,359.521 291.5,362C 292.966,362.635 294.3,363.469 295.5,364.5C 296.506,364.062 296.506,363.396 295.5,362.5C 300.6,358.448 306.267,355.781 312.5,354.5 Z"/></g>
<g><path style="opacity:1" fill="#5e6174" d="M 386.5,377.5 C 387.456,378.659 388.456,379.826 389.5,381C 384.873,385.314 379.54,387.98 373.5,389C 370.589,387.239 367.589,385.739 364.5,384.5C 362.882,383.549 361.549,382.216 360.5,380.5C 364.633,378.198 368.633,375.698 372.5,373C 374.167,372.333 375.833,372.333 377.5,373C 380.243,375.038 383.243,376.538 386.5,377.5 Z"/></g>
<g><path style="opacity:1" fill="#5d6073" d="M 339.5,389.5 C 337.337,387.917 335.004,386.584 332.5,385.5C 331.859,384.518 331.193,383.518 330.5,382.5C 334.933,379.395 339.599,376.729 344.5,374.5C 348.797,376.649 353.13,378.815 357.5,381C 358.357,381.689 359.023,382.522 359.5,383.5C 355.668,386.25 351.668,388.75 347.5,391C 344.678,391.428 342.012,390.928 339.5,389.5 Z"/></g>
<g><path style="opacity:1" fill="#5e6174" d="M 442.5,389.5 C 438.232,386.691 433.898,383.857 429.5,381C 430.571,380.148 431.571,379.315 432.5,378.5C 434.926,376.782 437.593,376.282 440.5,377C 444.577,378.787 448.41,380.954 452,383.5C 452.507,384.996 452.007,386.163 450.5,387C 448.091,388.707 445.425,389.54 442.5,389.5 Z"/></g>
<g><path style="opacity:1" fill="#5d6073" d="M 441.5,390.5 C 441.063,392.074 440.063,393.241 438.5,394C 435.339,395.413 432.339,397.08 429.5,399C 427.833,399.667 426.167,399.667 424.5,399C 422.423,397.295 420.09,396.128 417.5,395.5C 412.737,392.588 408.071,389.421 403.5,386C 407.345,383.637 411.011,381.137 414.5,378.5C 416.455,377.677 418.455,377.51 420.5,378C 427.528,382.178 434.528,386.345 441.5,390.5 Z"/></g>
<g><path style="opacity:1" fill="#5d6073" d="M 325.5,381.5 C 327.663,383.083 329.996,384.416 332.5,385.5C 334.931,387.068 334.931,388.568 332.5,390C 328.673,391.746 325.007,393.746 321.5,396C 320.167,396.667 318.833,396.667 317.5,396C 313.287,393.4 309.287,390.567 305.5,387.5C 309.332,384.75 313.332,382.25 317.5,380C 320.322,379.572 322.988,380.072 325.5,381.5 Z"/></g>
<g><path style="opacity:1" fill="#5d6073" d="M 290.5,398.5 C 286.964,399.896 283.63,399.396 280.5,397C 276.833,394.833 273.167,392.667 269.5,390.5C 268.224,389.386 268.224,388.386 269.5,387.5C 273.806,385.012 278.139,382.512 282.5,380C 290.053,381.612 296.719,385.112 302.5,390.5C 298.471,393.177 294.471,395.844 290.5,398.5 Z"/></g>
<g><path style="opacity:1" fill="#5e6173" d="M 398.5,384.5 C 401.433,386.645 404.433,388.812 407.5,391C 403.334,393.917 399.001,396.584 394.5,399C 392.455,399.49 390.455,399.323 388.5,398.5C 384.899,396.023 381.233,393.523 377.5,391C 381.666,388.083 385.999,385.416 390.5,383C 393.322,382.572 395.988,383.072 398.5,384.5 Z"/></g>
<g><path style="opacity:1" fill="#5d6073" d="M 364.5,384.5 C 368.288,387.567 372.288,390.4 376.5,393C 372.717,397.068 368.051,399.902 362.5,401.5C 358.893,400.363 355.56,398.696 352.5,396.5C 348.906,400.581 344.573,403.748 339.5,406C 336.581,406.552 333.914,405.885 331.5,404C 328.328,402.248 325.328,400.248 322.5,398C 327.645,393.997 333.311,391.164 339.5,389.5C 341.676,391.515 344.176,393.182 347,394.5C 347.93,392.448 349.43,390.948 351.5,390C 355.578,387.386 359.911,385.553 364.5,384.5 Z"/></g>
<g><path style="opacity:1" fill="#5e6174" d="M 308.5,409.5 C 306.545,410.323 304.545,410.49 302.5,410C 298.167,407.167 293.833,404.333 289.5,401.5C 290.357,400.575 291.357,399.908 292.5,399.5C 296.797,396.768 301.297,394.435 306,392.5C 310.156,393.661 313.989,395.495 317.5,398C 318.728,398.779 319.728,399.779 320.5,401C 320.167,401.5 319.833,402 319.5,402.5C 315.599,404.608 311.933,406.941 308.5,409.5 Z"/></g>
<g><path style="opacity:1" fill="#5d6073" d="M 417.5,395.5 C 419.988,397.255 422.322,399.255 424.5,401.5C 419.43,405.71 413.763,408.21 407.5,409C 403.47,406.323 399.47,403.656 395.5,401C 399.47,398.344 403.47,395.677 407.5,393C 411.015,392.913 414.348,393.746 417.5,395.5 Z"/></g>
<g><path style="opacity:1" fill="#5c6072" d="M 388.5,398.5 C 394.768,402.643 401.101,406.81 407.5,411C 402.545,414.643 397.212,417.476 391.5,419.5C 382.861,414.178 374.195,408.844 365.5,403.5C 370.289,398.767 375.955,396.267 382.5,396C 384.407,397.122 386.407,397.955 388.5,398.5 Z"/></g>
<g><path style="opacity:1" fill="#5f6275" d="M 464.5,399.5 C 465.693,399.97 466.36,400.97 466.5,402.5C 466.333,403.5 466.167,404.5 466,405.5C 461.667,408.167 457.333,410.833 453,413.5C 452.186,411.098 452.353,408.765 453.5,406.5C 457.401,404.392 461.067,402.059 464.5,399.5 Z"/></g>
<g><path style="opacity:1" fill="#5d6073" d="M 390.5,420.5 C 386.023,424.244 381.023,427.244 375.5,429.5C 368.843,425.838 362.177,422.171 355.5,418.5C 350.231,415.192 344.898,411.858 339.5,408.5C 343.894,404.881 348.727,401.881 354,399.5C 366.303,406.312 378.469,413.312 390.5,420.5 Z"/></g>
<g><path style="opacity:1" fill="#5f6275" d="M 324.5,420.5 C 318.485,419.007 312.985,416.34 308,412.5C 307.308,411.563 307.475,410.897 308.5,410.5C 310.751,408.79 313.251,407.457 316,406.5C 321.273,408.881 326.106,411.881 330.5,415.5C 328.469,417.175 326.469,418.841 324.5,420.5 Z"/></g>
<g><path style="opacity:1" fill="#626578" d="M 447.5,409.5 C 448.693,409.97 449.36,410.97 449.5,412.5C 449.333,413.5 449.167,414.5 449,415.5C 444.582,418.293 440.082,420.959 435.5,423.5C 434.359,421.579 434.192,419.579 435,417.5C 439.316,414.934 443.483,412.267 447.5,409.5 Z"/></g>
<g><path style="opacity:1" fill="#5d6073" d="M 354.5,419.5 C 355.097,419.735 355.43,420.235 355.5,421C 350.814,425.171 345.481,428.338 339.5,430.5C 333.977,428.244 328.977,425.244 324.5,421.5C 329.52,417.989 334.853,414.989 340.5,412.5C 345.467,414.317 350.134,416.65 354.5,419.5 Z"/></g>
<g><path style="opacity:1" fill="#5e6174" d="M 348.5,427.5 C 351.794,427.259 354.794,428.092 357.5,430C 359.67,431.586 362.004,432.92 364.5,434C 365.451,434.718 365.617,435.551 365,436.5C 362.088,439.544 358.588,440.711 354.5,440C 350.126,437.819 346.126,435.152 342.5,432C 344.358,430.245 346.358,428.745 348.5,427.5 Z"/></g>
</svg>
