<?xml version="1.0" encoding="UTF-8"?>
<!DOCTYPE svg PUBLIC "-//W3C//DTD SVG 1.1//EN" "http://www.w3.org/Graphics/SVG/1.1/DTD/svg11.dtd">
<svg xmlns="http://www.w3.org/2000/svg" version="1.1" width="512px" height="512px" style="shape-rendering:geometricPrecision; text-rendering:geometricPrecision; image-rendering:optimizeQuality; fill-rule:evenodd; clip-rule:evenodd" xmlns:xlink="http://www.w3.org/1999/xlink">
<g><path style="opacity:0.997" fill="#4c565b" d="M 262.5,-0.5 C 267.833,-0.5 273.167,-0.5 278.5,-0.5C 281.5,0.166667 284.5,0.833333 287.5,1.5C 289.698,2.16528 292.031,2.83195 294.5,3.5C 291.213,9.73855 288.213,16.0719 285.5,22.5C 280.172,21.8516 274.838,21.6849 269.5,22C 274.556,22.6205 279.556,23.4538 284.5,24.5C 294.248,26.7087 303.581,30.042 312.5,34.5C 309.558,40.7181 306.891,47.0515 304.5,53.5C 285.137,44.7321 264.804,41.0654 243.5,42.5C 250.108,28.2842 256.441,13.9509 262.5,-0.5 Z"/></g>
<g><path style="opacity:0.992" fill="#475156" d="M 287.5,1.5 C 313.719,4.24091 338.719,11.2409 362.5,22.5C 359.502,29.1622 356.502,35.8289 353.5,42.5C 350.397,40.6157 347.063,39.2824 343.5,38.5C 325.373,30.5505 306.373,25.5505 286.5,23.5C 286.5,22.8333 286.167,22.5 285.5,22.5C 288.213,16.0719 291.213,9.73855 294.5,3.5C 292.031,2.83195 289.698,2.16528 287.5,1.5 Z"/></g>
<g><path style="opacity:0.988" fill="#424c52" d="M 362.5,22.5 C 386.614,33.3068 408.28,47.6401 427.5,65.5C 428.323,67.4546 428.49,69.4546 428,71.5C 424.938,76.9533 422.438,82.6199 420.5,88.5C 415.795,83.7932 410.795,79.4599 405.5,75.5C 389.773,62.1335 372.44,51.1335 353.5,42.5C 356.502,35.8289 359.502,29.1622 362.5,22.5 Z"/></g>
<g><path style="opacity:1" fill="#ad4e4e" d="M 285.5,22.5 C 286.167,22.5 286.5,22.8333 286.5,23.5C 285.508,23.3284 284.842,23.6618 284.5,24.5C 279.556,23.4538 274.556,22.6205 269.5,22C 274.838,21.6849 280.172,21.8516 285.5,22.5 Z"/></g>
<g><path style="opacity:1" fill="#d34646" d="M 284.5,24.5 C 284.842,23.6618 285.508,23.3284 286.5,23.5C 306.373,25.5505 325.373,30.5505 343.5,38.5C 342.03,42.9117 340.363,47.245 338.5,51.5C 330.517,44.8382 321.85,39.1716 312.5,34.5C 303.581,30.042 294.248,26.7087 284.5,24.5 Z"/></g>
<g><path style="opacity:1" fill="#505a5f" d="M 232.5,-0.5 C 242.5,-0.5 252.5,-0.5 262.5,-0.5C 256.441,13.9509 250.108,28.2842 243.5,42.5C 200.877,49.2937 171.377,72.6271 155,112.5C 146.266,137.239 146.432,161.905 155.5,186.5C 154.624,186.369 153.957,186.702 153.5,187.5C 150.155,194.855 146.822,202.188 143.5,209.5C 132.713,190.021 127.38,169.021 127.5,146.5C 127.956,137.435 128.956,128.435 130.5,119.5C 146.567,64.4491 182.9,31.9491 239.5,22C 231.805,22.0025 224.138,22.6692 216.5,24C 205.368,26.0336 194.368,28.5336 183.5,31.5C 182.957,31.44 182.624,31.1067 182.5,30.5C 186.433,22.6895 189.766,14.6895 192.5,6.5C 205.87,3.62281 219.203,1.28947 232.5,-0.5 Z"/></g>
<g><path style="opacity:1" fill="#d54141" d="M 343.5,38.5 C 347.063,39.2824 350.397,40.6157 353.5,42.5C 372.44,51.1335 389.773,62.1335 405.5,75.5C 402.635,78.1899 400.469,81.5233 399,85.5C 392.873,98.7485 387.04,112.082 381.5,125.5C 380.348,120.567 379.015,115.567 377.5,110.5C 369.725,87.2568 356.725,67.5901 338.5,51.5C 340.363,47.245 342.03,42.9117 343.5,38.5 Z"/></g>
<g><path style="opacity:1" fill="#f3f3f3" d="M 243.5,42.5 C 264.804,41.0654 285.137,44.7321 304.5,53.5C 337.724,72.5635 357.057,101.23 362.5,139.5C 363.778,179.072 349.111,211.072 318.5,235.5C 285.604,257.207 250.604,261.207 213.5,247.5C 185.989,234.987 166.655,214.654 155.5,186.5C 146.432,161.905 146.266,137.239 155,112.5C 171.377,72.6271 200.877,49.2937 243.5,42.5 Z"/></g>
<g><path style="opacity:1" fill="#d95353" d="M 130.5,119.5 C 114.44,153.955 98.1062,188.288 81.5,222.5C 85.8121,200.401 85.4788,178.401 80.5,156.5C 76.7831,143.522 71.7831,131.022 65.5,119C 88.0077,87.1577 116.674,62.4911 151.5,45C 162.145,40.1823 172.812,35.6823 183.5,31.5C 194.368,28.5336 205.368,26.0336 216.5,24C 224.138,22.6692 231.805,22.0025 239.5,22C 182.9,31.9491 146.567,64.4491 130.5,119.5 Z"/></g>
<g><path style="opacity:1" fill="#444f54" d="M 312.5,34.5 C 321.85,39.1716 330.517,44.8382 338.5,51.5C 356.725,67.5901 369.725,87.2568 377.5,110.5C 372.245,120.01 367.245,129.676 362.5,139.5C 357.057,101.23 337.724,72.5635 304.5,53.5C 306.891,47.0515 309.558,40.7181 312.5,34.5 Z"/></g>
<g><path style="opacity:0.999" fill="#576065" d="M 192.5,6.5 C 189.766,14.6895 186.433,22.6895 182.5,30.5C 182.624,31.1067 182.957,31.44 183.5,31.5C 172.812,35.6823 162.145,40.1823 151.5,45C 116.674,62.4911 88.0077,87.1577 65.5,119C 71.7831,131.022 76.7831,143.522 80.5,156.5C 74.8333,167.833 69.1667,179.167 63.5,190.5C 63.483,173.099 59.983,156.433 53,140.5C 52.3333,139.167 51.6667,139.167 51,140.5C 28.5509,180.294 18.7176,222.961 21.5,268.5C 22.0209,272.481 22.3542,276.481 22.5,280.5C 17.4414,290.287 12.6081,300.287 8,310.5C 7.61742,309.944 7.11742,309.611 6.5,309.5C 3.01326,298.732 0.679924,287.732 -0.5,276.5C -0.5,261.833 -0.5,247.167 -0.5,232.5C 12.4486,132.729 64.4486,61.5622 155.5,19C 167.624,14.1255 179.957,9.95884 192.5,6.5 Z"/></g>
<g><path style="opacity:0.992" fill="#3b464c" d="M 427.5,65.5 C 448.603,84.2567 465.936,105.923 479.5,130.5C 478.504,130.414 477.671,130.748 477,131.5C 473.143,138.582 469.977,145.915 467.5,153.5C 464.944,148.731 462.11,144.064 459,139.5C 454.103,149.448 450.603,159.782 448.5,170.5C 441.843,183.494 435.176,197.161 428.5,211.5C 423.629,178.907 429.296,148.074 445.5,119C 438.102,108.099 429.769,97.932 420.5,88.5C 422.438,82.6199 424.938,76.9533 428,71.5C 428.49,69.4546 428.323,67.4546 427.5,65.5 Z"/></g>
<g><path style="opacity:1" fill="#d53b3b" d="M 405.5,75.5 C 410.795,79.4599 415.795,83.7932 420.5,88.5C 429.769,97.932 438.102,108.099 445.5,119C 429.296,148.074 423.629,178.907 428.5,211.5C 428.646,215.519 428.979,219.519 429.5,223.5C 393.349,251.071 353.016,270.405 308.5,281.5C 311.16,274.844 313.827,268.177 316.5,261.5C 367.077,230.335 388.744,185.002 381.5,125.5C 387.04,112.082 392.873,98.7485 399,85.5C 400.469,81.5233 402.635,78.1899 405.5,75.5 Z"/></g>
<g><path style="opacity:1" fill="#404b50" d="M 377.5,110.5 C 379.015,115.567 380.348,120.567 381.5,125.5C 388.744,185.002 367.077,230.335 316.5,261.5C 312.5,263.167 308.5,264.833 304.5,266.5C 308.777,256.006 313.444,245.673 318.5,235.5C 349.111,211.072 363.778,179.072 362.5,139.5C 367.245,129.676 372.245,120.01 377.5,110.5 Z"/></g>
<g><path style="opacity:1" fill="#d94e4e" d="M 130.5,119.5 C 128.956,128.435 127.956,137.435 127.5,146.5C 127.38,169.021 132.713,190.021 143.5,209.5C 150.903,222.956 160.236,234.956 171.5,245.5C 162.944,262.281 154.61,279.281 146.5,296.5C 142.766,296.677 139.099,296.344 135.5,295.5C 111.171,292.621 87.1714,288.121 63.5,282C 60.6971,281.385 58.3637,280.218 56.5,278.5C 68.3004,261.452 76.6338,242.785 81.5,222.5C 98.1062,188.288 114.44,153.955 130.5,119.5 Z"/></g>
<g><path style="opacity:1" fill="#f0f0f0" d="M 467.5,153.5 C 470.444,160.39 473.111,167.39 475.5,174.5C 467.973,186.364 458.973,197.031 448.5,206.5C 447.26,194.526 447.26,182.526 448.5,170.5C 450.603,159.782 454.103,149.448 459,139.5C 462.11,144.064 464.944,148.731 467.5,153.5 Z"/></g>
<g><path style="opacity:1" fill="#f1f1f1" d="M 63.5,190.5 C 63.0975,216.539 55.9309,240.539 42,262.5C 39.3858,266.09 36.5525,269.424 33.5,272.5C 29.5621,270.965 25.5621,269.632 21.5,268.5C 18.7176,222.961 28.5509,180.294 51,140.5C 51.6667,139.167 52.3333,139.167 53,140.5C 59.983,156.433 63.483,173.099 63.5,190.5 Z"/></g>
<g><path style="opacity:1" fill="#545d62" d="M 80.5,156.5 C 85.4788,178.401 85.8121,200.401 81.5,222.5C 76.6338,242.785 68.3004,261.452 56.5,278.5C 48.2612,289.409 38.9279,299.409 28.5,308.5C 36.6448,332.619 49.9781,353.286 68.5,370.5C 65.4364,376.96 62.1031,383.293 58.5,389.5C 32.1375,368.793 14.8042,342.126 6.5,309.5C 7.11742,309.611 7.61742,309.944 8,310.5C 12.6081,300.287 17.4414,290.287 22.5,280.5C 22.272,282.355 22.9387,283.188 24.5,283C 28.1074,279.902 31.1074,276.402 33.5,272.5C 36.5525,269.424 39.3858,266.09 42,262.5C 55.9309,240.539 63.0975,216.539 63.5,190.5C 69.1667,179.167 74.8333,167.833 80.5,156.5 Z"/></g>
<g><path style="opacity:1" fill="#4c565b" d="M 155.5,186.5 C 166.655,214.654 185.989,234.987 213.5,247.5C 210.554,253.724 207.887,260.058 205.5,266.5C 193.162,261.004 181.828,254.004 171.5,245.5C 160.236,234.956 150.903,222.956 143.5,209.5C 146.822,202.188 150.155,194.855 153.5,187.5C 153.957,186.702 154.624,186.369 155.5,186.5 Z"/></g>
<g><path style="opacity:1" fill="#c03434" d="M 429.5,223.5 C 431.8,230.738 434.133,238.071 436.5,245.5C 435.883,245.389 435.383,245.056 435,244.5C 419.759,277.98 404.259,311.313 388.5,344.5C 383.067,341.069 377.4,338.069 371.5,335.5C 353.291,325.874 333.958,319.207 313.5,315.5C 307.188,314.059 300.855,312.726 294.5,311.5C 298.213,302.404 302.213,293.404 306.5,284.5C 306.043,283.702 305.376,283.369 304.5,283.5C 305.833,282.833 307.167,282.167 308.5,281.5C 353.016,270.405 393.349,251.071 429.5,223.5 Z"/></g>
<g><path style="opacity:0.997" fill="#343f45" d="M 479.5,130.5 C 497.229,162.35 507.896,196.35 511.5,232.5C 511.5,247.833 511.5,263.167 511.5,278.5C 507.784,330.775 485.118,372.608 443.5,404C 436.613,408.393 429.613,412.56 422.5,416.5C 422.389,415.883 422.056,415.383 421.5,415C 426.914,404.34 431.914,393.507 436.5,382.5C 459.949,363.29 475.616,338.956 483.5,309.5C 468.309,296.142 455.476,280.809 445,263.5C 441.88,257.595 439.046,251.595 436.5,245.5C 434.133,238.071 431.8,230.738 429.5,223.5C 428.979,219.519 428.646,215.519 428.5,211.5C 435.176,197.161 441.843,183.494 448.5,170.5C 447.26,182.526 447.26,194.526 448.5,206.5C 452.39,237.28 465.556,263.28 488,284.5C 493.514,246.63 489.347,209.963 475.5,174.5C 473.111,167.39 470.444,160.39 467.5,153.5C 469.977,145.915 473.143,138.582 477,131.5C 477.671,130.748 478.504,130.414 479.5,130.5 Z"/></g>
<g><path style="opacity:1" fill="#d8d8d9" d="M 475.5,174.5 C 489.347,209.963 493.514,246.63 488,284.5C 465.556,263.28 452.39,237.28 448.5,206.5C 458.973,197.031 467.973,186.364 475.5,174.5 Z"/></g>
<g><path style="opacity:1" fill="#444f54" d="M 318.5,235.5 C 313.444,245.673 308.777,256.006 304.5,266.5C 282.401,275.402 259.401,278.402 235.5,275.5C 225.314,273.449 215.314,270.449 205.5,266.5C 207.887,260.058 210.554,253.724 213.5,247.5C 250.604,261.207 285.604,257.207 318.5,235.5 Z"/></g>
<g><path style="opacity:1" fill="#be2f2f" d="M 436.5,245.5 C 439.046,251.595 441.88,257.595 445,263.5C 455.476,280.809 468.309,296.142 483.5,309.5C 475.616,338.956 459.949,363.29 436.5,382.5C 432.529,385.156 428.529,387.823 424.5,390.5C 424.458,385.955 424.291,381.288 424,376.5C 418.206,368.372 411.373,361.205 403.5,355C 398.62,351.28 393.62,347.78 388.5,344.5C 404.259,311.313 419.759,277.98 435,244.5C 435.383,245.056 435.883,245.389 436.5,245.5 Z"/></g>
<g><path style="opacity:1" fill="#d74747" d="M 171.5,245.5 C 181.828,254.004 193.162,261.004 205.5,266.5C 215.314,270.449 225.314,273.449 235.5,275.5C 234.504,275.414 233.671,275.748 233,276.5C 230.092,283.314 226.926,289.981 223.5,296.5C 219.865,297.114 216.198,297.448 212.5,297.5C 190.452,298.954 168.452,298.621 146.5,296.5C 154.61,279.281 162.944,262.281 171.5,245.5 Z"/></g>
<g><path style="opacity:1" fill="#d54141" d="M 316.5,261.5 C 313.827,268.177 311.16,274.844 308.5,281.5C 307.167,282.167 305.833,282.833 304.5,283.5C 277.874,290.104 250.874,294.438 223.5,296.5C 226.926,289.981 230.092,283.314 233,276.5C 233.671,275.748 234.504,275.414 235.5,275.5C 259.401,278.402 282.401,275.402 304.5,266.5C 308.5,264.833 312.5,263.167 316.5,261.5 Z"/></g>
<g><path style="opacity:1" fill="#d8d8d8" d="M 21.5,268.5 C 25.5621,269.632 29.5621,270.965 33.5,272.5C 31.1074,276.402 28.1074,279.902 24.5,283C 22.9387,283.188 22.272,282.355 22.5,280.5C 22.3542,276.481 22.0209,272.481 21.5,268.5 Z"/></g>
<g><path style="opacity:1" fill="#c44646" d="M 56.5,278.5 C 58.3637,280.218 60.6971,281.385 63.5,282C 87.1714,288.121 111.171,292.621 135.5,295.5C 127.453,313.931 119.119,332.264 110.5,350.5C 110.624,351.107 110.957,351.44 111.5,351.5C 103.928,357.566 96.7616,364.233 90,371.5C 87.2115,374.979 85.8782,378.979 86,383.5C 80.2262,379.036 74.3929,374.702 68.5,370.5C 49.9781,353.286 36.6448,332.619 28.5,308.5C 38.9279,299.409 48.2612,289.409 56.5,278.5 Z"/></g>
<g><path style="opacity:1" fill="#c03b3b" d="M 304.5,283.5 C 305.376,283.369 306.043,283.702 306.5,284.5C 302.213,293.404 298.213,302.404 294.5,311.5C 272.193,309.362 249.859,309.029 227.5,310.5C 220.87,311.495 214.203,312.162 207.5,312.5C 206.624,312.631 205.957,312.298 205.5,311.5C 207.847,306.807 210.18,302.14 212.5,297.5C 216.198,297.448 219.865,297.114 223.5,296.5C 250.874,294.438 277.874,290.104 304.5,283.5 Z"/></g>
<g><path style="opacity:1" fill="#c34242" d="M 135.5,295.5 C 139.099,296.344 142.766,296.677 146.5,296.5C 168.452,298.621 190.452,298.954 212.5,297.5C 210.18,302.14 207.847,306.807 205.5,311.5C 205.957,312.298 206.624,312.631 207.5,312.5C 172.761,318.855 140.761,331.855 111.5,351.5C 110.957,351.44 110.624,351.107 110.5,350.5C 119.119,332.264 127.453,313.931 135.5,295.5 Z"/></g>
<g><path style="opacity:1" fill="#424d53" d="M 294.5,311.5 C 300.855,312.726 307.188,314.059 313.5,315.5C 311.109,321.949 308.442,328.282 305.5,334.5C 289.608,331.851 273.608,330.518 257.5,330.5C 244.431,330.169 231.431,330.836 218.5,332.5C 221.506,325.156 224.506,317.823 227.5,310.5C 249.859,309.029 272.193,309.362 294.5,311.5 Z"/></g>
<g><path style="opacity:1" fill="#3d484d" d="M 313.5,315.5 C 333.958,319.207 353.291,325.874 371.5,335.5C 367.99,341.187 364.99,347.187 362.5,353.5C 354.945,350.223 347.278,347.223 339.5,344.5C 328.344,340.544 317.01,337.211 305.5,334.5C 308.442,328.282 311.109,321.949 313.5,315.5 Z"/></g>
<g><path style="opacity:1" fill="#e9d4c4" d="M 257.5,330.5 C 242.535,345.965 227.368,361.299 212,376.5C 211.536,377.094 211.369,377.761 211.5,378.5C 210.306,372.952 207.639,368.119 203.5,364C 195.12,360.329 188.954,362.496 185,370.5C 181.203,382.874 179.703,395.541 180.5,408.5C 175.535,412.963 170.702,417.63 166,422.5C 168.723,414.722 171.723,407.055 175,399.5C 166.579,408.426 157.746,416.759 148.5,424.5C 135.202,411.702 122.035,398.702 109,385.5C 108.601,385.728 108.435,386.062 108.5,386.5C 107.427,385.749 107.26,384.749 108,383.5C 131.246,360.953 158.746,345.787 190.5,338C 199.73,335.587 209.064,333.754 218.5,332.5C 231.431,330.836 244.431,330.169 257.5,330.5 Z"/></g>
<g><path style="opacity:1" fill="#efd8c7" d="M 257.5,330.5 C 273.608,330.518 289.608,331.851 305.5,334.5C 317.01,337.211 328.344,340.544 339.5,344.5C 333.108,350.888 327.108,357.555 321.5,364.5C 312.427,360.129 305.761,362.463 301.5,371.5C 300.867,371.12 300.2,370.787 299.5,370.5C 302.953,363.616 305.787,356.616 308,349.5C 268.965,388.701 229.799,427.701 190.5,466.5C 176.167,452.833 162.167,438.833 148.5,424.5C 157.746,416.759 166.579,408.426 175,399.5C 171.723,407.055 168.723,414.722 166,422.5C 170.702,417.63 175.535,412.963 180.5,408.5C 180.626,420.259 182.792,431.592 187,442.5C 192.052,448.174 197.886,449.008 204.5,445C 208.907,438.561 211.407,431.394 212,423.5C 212.749,408.479 212.583,393.479 211.5,378.5C 211.369,377.761 211.536,377.094 212,376.5C 227.368,361.299 242.535,345.965 257.5,330.5 Z"/></g>
<g><path style="opacity:0.997" fill="#4a5459" d="M 227.5,310.5 C 224.506,317.823 221.506,325.156 218.5,332.5C 209.064,333.754 199.73,335.587 190.5,338C 158.746,345.787 131.246,360.953 108,383.5C 107.26,384.749 107.427,385.749 108.5,386.5C 108.887,409.055 113.387,430.722 122,451.5C 128.846,463.184 138.346,471.851 150.5,477.5C 147.574,483.02 144.907,488.686 142.5,494.5C 141.675,495.386 140.675,495.719 139.5,495.5C 120.032,486.863 106.532,472.53 99,452.5C 94.2118,438.378 90.3784,424.045 87.5,409.5C 77.2418,403.556 67.5752,396.889 58.5,389.5C 62.1031,383.293 65.4364,376.96 68.5,370.5C 74.3929,374.702 80.2262,379.036 86,383.5C 85.8782,378.979 87.2115,374.979 90,371.5C 96.7616,364.233 103.928,357.566 111.5,351.5C 140.761,331.855 172.761,318.855 207.5,312.5C 214.203,312.162 220.87,311.495 227.5,310.5 Z"/></g>
<g><path style="opacity:0.994" fill="#364147" d="M 371.5,335.5 C 377.4,338.069 383.067,341.069 388.5,344.5C 393.62,347.78 398.62,351.28 403.5,355C 411.373,361.205 418.206,368.372 424,376.5C 424.291,381.288 424.458,385.955 424.5,390.5C 428.529,387.823 432.529,385.156 436.5,382.5C 431.914,393.507 426.914,404.34 421.5,415C 422.056,415.383 422.389,415.883 422.5,416.5C 419.44,430.385 415.273,444.051 410,457.5C 397.425,482.727 377.258,498.227 349.5,504C 331.862,507.744 314.195,510.244 296.5,511.5C 294.833,511.5 293.167,511.5 291.5,511.5C 290.909,510.849 290.243,510.182 289.5,509.5C 292.693,503.252 295.693,496.919 298.5,490.5C 300.969,489.832 303.302,489.165 305.5,488.5C 323.717,487.731 341.383,484.231 358.5,478C 381.083,467.731 394.249,450.231 398,425.5C 400.548,411.556 402.215,397.556 403,383.5C 399.964,380.296 396.797,377.296 393.5,374.5C 383.987,366.326 373.654,359.326 362.5,353.5C 364.99,347.187 367.99,341.187 371.5,335.5 Z"/></g>
<g><path style="opacity:1" fill="#f5ddcb" d="M 339.5,344.5 C 347.278,347.223 354.945,350.223 362.5,353.5C 373.654,359.326 383.987,366.326 393.5,374.5C 370.5,397.167 347.5,419.833 324.5,442.5C 330.06,425.293 331.893,407.626 330,389.5C 329.561,382.974 328.228,376.64 326,370.5C 324.723,368.253 323.223,366.253 321.5,364.5C 327.108,357.555 333.108,350.888 339.5,344.5 Z"/></g>
<g><path style="opacity:1" fill="#3d484d" d="M 321.5,364.5 C 323.223,366.253 324.723,368.253 326,370.5C 328.228,376.64 329.561,382.974 330,389.5C 331.893,407.626 330.06,425.293 324.5,442.5C 320.093,447.365 314.759,448.698 308.5,446.5C 305.389,444.314 303.222,441.314 302,437.5C 297.551,415.516 297.385,393.516 301.5,371.5C 305.761,362.463 312.427,360.129 321.5,364.5 Z"/></g>
<g><path style="opacity:1" fill="#455055" d="M 211.5,378.5 C 212.583,393.479 212.749,408.479 212,423.5C 211.407,431.394 208.907,438.561 204.5,445C 197.886,449.008 192.052,448.174 187,442.5C 182.792,431.592 180.626,420.259 180.5,408.5C 179.703,395.541 181.203,382.874 185,370.5C 188.954,362.496 195.12,360.329 203.5,364C 207.639,368.119 210.306,372.952 211.5,378.5 Z"/></g>
<g><path style="opacity:1" fill="#fce5d4" d="M 148.5,424.5 C 162.167,438.833 176.167,452.833 190.5,466.5C 197.297,473.798 204.297,480.965 211.5,488C 210.906,488.464 210.239,488.631 209.5,488.5C 189.109,488.555 169.442,484.888 150.5,477.5C 138.346,471.851 128.846,463.184 122,451.5C 113.387,430.722 108.887,409.055 108.5,386.5C 108.435,386.062 108.601,385.728 109,385.5C 122.035,398.702 135.202,411.702 148.5,424.5 Z"/></g>
<g><path style="opacity:1" fill="#f3dcca" d="M 301.5,371.5 C 297.385,393.516 297.551,415.516 302,437.5C 303.222,441.314 305.389,444.314 308.5,446.5C 293.419,460.078 278.752,474.245 264.5,489C 269.489,489.499 274.489,489.666 279.5,489.5C 264.009,490.496 248.342,490.83 232.5,490.5C 224.643,490.333 216.977,489.666 209.5,488.5C 210.239,488.631 210.906,488.464 211.5,488C 204.297,480.965 197.297,473.798 190.5,466.5C 229.799,427.701 268.965,388.701 308,349.5C 305.787,356.616 302.953,363.616 299.5,370.5C 300.2,370.787 300.867,371.12 301.5,371.5 Z"/></g>
<g><path style="opacity:1" fill="#f9e1ce" d="M 393.5,374.5 C 396.797,377.296 399.964,380.296 403,383.5C 402.215,397.556 400.548,411.556 398,425.5C 394.249,450.231 381.083,467.731 358.5,478C 341.383,484.231 323.717,487.731 305.5,488.5C 296.851,489.203 288.185,489.536 279.5,489.5C 274.489,489.666 269.489,489.499 264.5,489C 278.752,474.245 293.419,460.078 308.5,446.5C 314.759,448.698 320.093,447.365 324.5,442.5C 347.5,419.833 370.5,397.167 393.5,374.5 Z"/></g>
<g><path style="opacity:0.987" fill="#414c52" d="M 150.5,477.5 C 169.442,484.888 189.109,488.555 209.5,488.5C 216.977,489.666 224.643,490.333 232.5,490.5C 229.313,496.718 226.313,503.051 223.5,509.5C 222.398,510.176 221.398,510.842 220.5,511.5C 218.5,511.5 216.5,511.5 214.5,511.5C 192.167,510.388 170.167,506.555 148.5,500C 145.177,498.96 142.177,497.46 139.5,495.5C 140.675,495.719 141.675,495.386 142.5,494.5C 144.907,488.686 147.574,483.02 150.5,477.5 Z"/></g>
<g><path style="opacity:0.989" fill="#3c474d" d="M 305.5,488.5 C 303.302,489.165 300.969,489.832 298.5,490.5C 295.693,496.919 292.693,503.252 289.5,509.5C 290.243,510.182 290.909,510.849 291.5,511.5C 267.833,511.5 244.167,511.5 220.5,511.5C 221.398,510.842 222.398,510.176 223.5,509.5C 226.313,503.051 229.313,496.718 232.5,490.5C 248.342,490.83 264.009,490.496 279.5,489.5C 288.185,489.536 296.851,489.203 305.5,488.5 Z"/></g>
</svg>
