<?xml version="1.0" encoding="UTF-8"?>
<!DOCTYPE svg PUBLIC "-//W3C//DTD SVG 1.1//EN" "http://www.w3.org/Graphics/SVG/1.1/DTD/svg11.dtd">
<svg xmlns="http://www.w3.org/2000/svg" version="1.1" width="512px" height="512px" style="shape-rendering:geometricPrecision; text-rendering:geometricPrecision; image-rendering:optimizeQuality; fill-rule:evenodd; clip-rule:evenodd" xmlns:xlink="http://www.w3.org/1999/xlink">
<g><path style="opacity:0.945" fill="#020405" d="M 361.5,87.5 C 359.417,86.9711 357.583,85.9711 356,84.5C 359.592,62.2663 353.092,43.7663 336.5,29C 324.215,21.5922 310.882,17.2589 296.5,16C 271.524,13.2386 246.524,12.9053 221.5,15C 211.042,16.3583 200.709,18.3583 190.5,21C 172.555,27.0457 161.055,39.2124 156,57.5C 155.5,86.8314 155.333,116.165 155.5,145.5C 189.835,145.333 224.168,145.5 258.5,146C 261.311,149.294 260.978,152.294 257.5,155C 190.833,155.333 124.167,155.667 57.5,156C 41.7389,160.435 30.2389,169.935 23,184.5C 17.0736,204.059 13.7402,224.059 13,244.5C 11.9127,246.814 10.0794,248.148 7.5,248.5C 4.44476,247.754 2.7781,245.754 2.5,242.5C 3.70223,223.918 6.53556,205.585 11,187.5C 19.4347,162.73 36.6013,148.564 62.5,145C 89.8313,144.5 117.165,144.333 144.5,144.5C 144.333,117.165 144.5,89.8313 145,62.5C 148.596,36.5741 162.762,19.4074 187.5,11C 235.825,-1.11483 283.825,-0.114833 331.5,14C 358.787,29.0741 370.287,52.2407 366,83.5C 365.252,85.751 363.752,87.0844 361.5,87.5 Z"/></g>
<g><path style="opacity:1" fill="#71c0e7" d="M 361.5,87.5 C 361.5,90.5 361.5,93.5 361.5,96.5C 355.842,97.9731 354.509,101.14 357.5,106C 358.745,106.791 360.078,107.291 361.5,107.5C 361.5,110.5 361.5,113.5 361.5,116.5C 359.29,117.201 357.456,118.535 356,120.5C 355.667,149.5 355.333,178.5 355,207.5C 350.848,231.652 336.682,245.818 312.5,250C 273.167,250.333 233.833,250.667 194.5,251C 170.367,256.467 154.534,270.967 147,294.5C 145.56,314.788 145.06,335.121 145.5,355.5C 116.498,355.667 87.4981,355.5 58.5,355C 38.3421,349.509 25.5088,336.675 20,316.5C 17.6736,304.556 15.6736,292.556 14,280.5C 12.2811,279.131 10.4478,278.131 8.5,277.5C 8.73586,274.391 8.40252,271.391 7.5,268.5C 15.4759,264.889 15.4759,261.223 7.5,257.5C 7.5,254.5 7.5,251.5 7.5,248.5C 10.0794,248.148 11.9127,246.814 13,244.5C 13.7402,224.059 17.0736,204.059 23,184.5C 30.2389,169.935 41.7389,160.435 57.5,156C 124.167,155.667 190.833,155.333 257.5,155C 260.978,152.294 261.311,149.294 258.5,146C 224.168,145.5 189.835,145.333 155.5,145.5C 155.333,116.165 155.5,86.8314 156,57.5C 161.055,39.2124 172.555,27.0457 190.5,21C 200.709,18.3583 211.042,16.3583 221.5,15C 246.524,12.9053 271.524,13.2386 296.5,16C 310.882,17.2589 324.215,21.5922 336.5,29C 353.092,43.7663 359.592,62.2663 356,84.5C 357.583,85.9711 359.417,86.9711 361.5,87.5 Z"/></g>
<g><path style="opacity:1" fill="#c3e4fe" d="M 309.5,37.5 C 323.662,39.1601 332.829,46.8268 337,60.5C 337.667,109.833 337.667,159.167 337,208.5C 333.243,221.975 324.409,229.808 310.5,232C 271.167,232.333 231.833,232.667 192.5,233C 153.377,242.054 131.377,266.554 126.5,306.5C 120.137,310.313 117.137,308.48 117.5,301C 124.607,257.227 149.94,231.227 193.5,223C 232.833,222.667 272.167,222.333 311.5,222C 318.909,219.592 324.076,214.758 327,207.5C 327.667,159.167 327.667,110.833 327,62.5C 323.869,53.4256 317.536,48.0923 308,46.5C 305.788,43.0213 306.288,40.0213 309.5,37.5 Z"/></g>
<g><path style="opacity:1" fill="#040606" d="M 204.5,62.5 C 218.445,60.2163 227.945,65.5496 233,78.5C 234.01,97.8231 224.843,106.656 205.5,105C 189.618,96.848 186.118,85.0147 195,69.5C 198.068,66.9174 201.235,64.5841 204.5,62.5 Z"/></g>
<g><path style="opacity:1" fill="#f8f8f8" d="M 206.5,72.5 C 217.831,70.6802 223.331,75.3468 223,86.5C 220.446,93.8147 215.279,96.648 207.5,95C 197.269,87.8277 196.936,80.3277 206.5,72.5 Z"/></g>
<g><path style="opacity:0.872" fill="#060a0c" d="M 361.5,96.5 C 366.013,98.1937 367.18,101.194 365,105.5C 364.184,106.823 363.017,107.489 361.5,107.5C 360.078,107.291 358.745,106.791 357.5,106C 354.509,101.14 355.842,97.9731 361.5,96.5 Z"/></g>
<g><path style="opacity:0.953" fill="#050401" d="M 361.5,116.5 C 363.708,117.023 365.208,118.356 366,120.5C 366.5,128.493 366.666,136.493 366.5,144.5C 393.835,144.333 421.169,144.5 448.5,145C 473.233,148.066 490.066,161.233 499,184.5C 508.403,222.135 510.403,260.135 505,298.5C 500.766,346.08 474.933,368.58 427.5,366C 425.624,365.082 424.624,363.582 424.5,361.5C 424.393,359.097 425.393,357.264 427.5,356C 461.746,359.985 483.246,345.485 492,312.5C 499.935,271.665 499.269,230.998 490,190.5C 483.452,171.95 470.619,160.45 451.5,156C 422.835,155.5 394.169,155.333 365.5,155.5C 365.667,173.503 365.5,191.503 365,209.5C 359.504,237.663 342.671,254.496 314.5,260C 273.454,260.023 232.454,260.689 191.5,262C 172.822,268.011 160.989,280.511 156,299.5C 155.333,350.167 155.333,400.833 156,451.5C 160.423,470.594 171.923,483.427 190.5,490C 232.414,499.588 274.414,499.921 316.5,491C 337.114,485.387 349.947,472.22 355,451.5C 355.5,422.835 355.667,394.169 355.5,365.5C 351.833,365.5 348.167,365.5 344.5,365.5C 341.167,365.5 337.833,365.5 334.5,365.5C 307.165,365.667 279.831,365.5 252.5,365C 249.595,361.626 249.928,358.626 253.5,356C 280.498,355.5 307.498,355.333 334.5,355.5C 337.833,355.5 341.167,355.5 344.5,355.5C 360.17,355.333 375.837,355.5 391.5,356C 393.465,357.456 394.799,359.29 395.5,361.5C 394.977,363.708 393.644,365.208 391.5,366C 383.173,366.5 374.84,366.666 366.5,366.5C 366.667,393.502 366.5,420.502 366,447.5C 362.897,473.938 348.73,491.438 323.5,500C 278.16,511.278 232.826,511.278 187.5,500C 162.73,491.565 148.564,474.399 145,448.5C 144.5,421.169 144.333,393.835 144.5,366.5C 117.498,366.667 90.4979,366.5 63.5,366C 39.8511,363.259 23.0177,351.093 13,329.5C 7.73116,313.221 5.06449,296.555 5,279.5C 6.11268,278.695 7.27935,278.028 8.5,277.5C 10.4478,278.131 12.2811,279.131 14,280.5C 15.6736,292.556 17.6736,304.556 20,316.5C 25.5088,336.675 38.3421,349.509 58.5,355C 87.4981,355.5 116.498,355.667 145.5,355.5C 145.06,335.121 145.56,314.788 147,294.5C 154.534,270.967 170.367,256.467 194.5,251C 233.833,250.667 273.167,250.333 312.5,250C 336.682,245.818 350.848,231.652 355,207.5C 355.333,178.5 355.667,149.5 356,120.5C 357.456,118.535 359.29,117.201 361.5,116.5 Z"/></g>
<g><path style="opacity:1" fill="#efbf20" d="M 424.5,361.5 C 421.5,361.5 418.5,361.5 415.5,361.5C 413.42,355.107 409.92,354.107 405,358.5C 404.517,359.448 404.351,360.448 404.5,361.5C 401.5,361.5 398.5,361.5 395.5,361.5C 394.799,359.29 393.465,357.456 391.5,356C 375.837,355.5 360.17,355.333 344.5,355.5C 344.5,349.5 344.5,343.5 344.5,337.5C 379.502,337.667 414.502,337.5 449.5,337C 457.663,334.84 464.163,330.34 469,323.5C 472.086,316.827 474.086,309.827 475,302.5C 481.332,268.765 480.998,235.098 474,201.5C 470.581,182.737 459.414,173.57 440.5,174C 437.833,177 437.833,180 440.5,183C 449.375,182.687 456.208,186.187 461,193.5C 465.275,206.142 467.941,219.142 469,232.5C 470.353,254.627 469.353,276.627 466,298.5C 465.092,305.046 463.425,311.379 461,317.5C 457.81,322.513 453.31,325.68 447.5,327C 410.833,327.333 374.167,327.667 337.5,328C 336.667,328.833 335.833,329.667 335,330.5C 334.5,338.827 334.334,347.16 334.5,355.5C 307.498,355.333 280.498,355.5 253.5,356C 249.928,358.626 249.595,361.626 252.5,365C 279.831,365.5 307.165,365.667 334.5,365.5C 334.333,382.503 334.5,399.503 335,416.5C 338,420.5 341,420.5 344,416.5C 344.5,399.503 344.667,382.503 344.5,365.5C 348.167,365.5 351.833,365.5 355.5,365.5C 355.667,394.169 355.5,422.835 355,451.5C 349.947,472.22 337.114,485.387 316.5,491C 274.414,499.921 232.414,499.588 190.5,490C 171.923,483.427 160.423,470.594 156,451.5C 155.333,400.833 155.333,350.167 156,299.5C 160.989,280.511 172.822,268.011 191.5,262C 232.454,260.689 273.454,260.023 314.5,260C 342.671,254.496 359.504,237.663 365,209.5C 365.5,191.503 365.667,173.503 365.5,155.5C 394.169,155.333 422.835,155.5 451.5,156C 470.619,160.45 483.452,171.95 490,190.5C 499.269,230.998 499.935,271.665 492,312.5C 483.246,345.485 461.746,359.985 427.5,356C 425.393,357.264 424.393,359.097 424.5,361.5 Z"/></g>
<g><path style="opacity:1" fill="#f8e4ac" d="M 344.5,355.5 C 341.167,355.5 337.833,355.5 334.5,355.5C 334.334,347.16 334.5,338.827 335,330.5C 335.833,329.667 336.667,328.833 337.5,328C 374.167,327.667 410.833,327.333 447.5,327C 453.31,325.68 457.81,322.513 461,317.5C 463.425,311.379 465.092,305.046 466,298.5C 469.353,276.627 470.353,254.627 469,232.5C 467.941,219.142 465.275,206.142 461,193.5C 456.208,186.187 449.375,182.687 440.5,183C 437.833,180 437.833,177 440.5,174C 459.414,173.57 470.581,182.737 474,201.5C 480.998,235.098 481.332,268.765 475,302.5C 474.086,309.827 472.086,316.827 469,323.5C 464.163,330.34 457.663,334.84 449.5,337C 414.502,337.5 379.502,337.667 344.5,337.5C 344.5,343.5 344.5,349.5 344.5,355.5 Z"/></g>
<g><path style="opacity:0.864" fill="#030506" d="M 7.5,257.5 C 15.4759,261.223 15.4759,264.889 7.5,268.5C 3.17328,267.52 1.67328,264.853 3,260.5C 4.12901,258.859 5.62901,257.859 7.5,257.5 Z"/></g>
<g><path style="opacity:1" fill="#c1e3fd" d="M 120.5,318.5 C 123.325,318.081 125.491,319.081 127,321.5C 127.667,325.833 127.667,330.167 127,334.5C 124.294,337.978 121.294,338.311 118,335.5C 117.333,330.5 117.333,325.5 118,320.5C 118.995,319.934 119.828,319.267 120.5,318.5 Z"/></g>
<g><path style="opacity:0.877" fill="#0b0801" d="M 415.5,361.5 C 414.17,365.333 411.503,366.833 407.5,366C 405.859,364.871 404.859,363.371 404.5,361.5C 404.351,360.448 404.517,359.448 405,358.5C 409.92,354.107 413.42,355.107 415.5,361.5 Z"/></g>
<g><path style="opacity:1" fill="#f7e3ad" d="M 334.5,365.5 C 337.833,365.5 341.167,365.5 344.5,365.5C 344.667,382.503 344.5,399.503 344,416.5C 341,420.5 338,420.5 335,416.5C 334.5,399.503 334.333,382.503 334.5,365.5 Z"/></g>
<g><path style="opacity:1" fill="#080604" d="M 293.5,405.5 C 314.643,405.474 323.143,415.807 319,436.5C 313.167,446.854 304.334,450.688 292.5,448C 278.917,441.252 274.75,430.752 280,416.5C 283.336,411.269 287.836,407.602 293.5,405.5 Z"/></g>
<g><path style="opacity:1" fill="#fafafa" d="M 294.5,415.5 C 309.595,415.524 313.928,422.357 307.5,436C 293.843,441.665 287.343,437.165 288,422.5C 289.694,419.642 291.861,417.309 294.5,415.5 Z"/></g>
<g><path style="opacity:1" fill="#f8e4ac" d="M 336.5,429.5 C 339.695,428.961 342.195,429.961 344,432.5C 344.667,436.833 344.667,441.167 344,445.5C 341.472,449.085 338.472,449.418 335,446.5C 334.333,441.5 334.333,436.5 335,431.5C 335.717,430.956 336.217,430.289 336.5,429.5 Z"/></g>
</svg>
