<?xml version="1.0" encoding="UTF-8"?>
<!DOCTYPE svg PUBLIC "-//W3C//DTD SVG 1.1//EN" "http://www.w3.org/Graphics/SVG/1.1/DTD/svg11.dtd">
<svg xmlns="http://www.w3.org/2000/svg" version="1.1" width="512px" height="512px" style="shape-rendering:geometricPrecision; text-rendering:geometricPrecision; image-rendering:optimizeQuality; fill-rule:evenodd; clip-rule:evenodd" xmlns:xlink="http://www.w3.org/1999/xlink">
<g><path style="opacity:0.996" fill="#e0e5e8" d="M 125.5,-0.5 C 204.833,-0.5 284.167,-0.5 363.5,-0.5C 366.297,43.9682 387.964,75.1349 428.5,93C 435.702,95.3008 443.035,96.9675 450.5,98C 453.333,99.5 455.5,101.667 457,104.5C 457.858,144.513 457.525,184.513 456,224.5C 440.047,336.964 385.214,424.797 291.5,488C 278.436,495.859 265.436,503.692 252.5,511.5C 251.833,511.5 251.167,511.5 250.5,511.5C 207.922,491.05 169.255,464.883 134.5,433C 69.1246,369.403 32.2912,291.903 24,200.5C 23.0193,163.773 23.3526,127.107 25,90.5C 26.5429,88.6217 28.3762,87.1217 30.5,86C 64.0467,82.3989 89.88,66.5656 108,38.5C 113.265,28.0369 116.932,17.0369 119,5.5C 121.063,3.26589 123.229,1.26589 125.5,-0.5 Z"/></g>
<g><path style="opacity:1" fill="#cbcbcb" d="M 363.5,-0.5 C 370.833,-0.5 378.167,-0.5 385.5,-0.5C 391.965,3.99406 395.132,10.3274 395,18.5C 405.141,49.9739 425.974,70.8072 457.5,81C 465.122,82.9242 472.788,84.5908 480.5,86C 483.728,87.5629 485.895,90.0629 487,93.5C 487.667,128.833 487.667,164.167 487,199.5C 479.092,290.801 442.592,368.301 377.5,432C 342.59,464.46 303.59,490.96 260.5,511.5C 257.833,511.5 255.167,511.5 252.5,511.5C 265.436,503.692 278.436,495.859 291.5,488C 385.214,424.797 440.047,336.964 456,224.5C 457.525,184.513 457.858,144.513 457,104.5C 455.5,101.667 453.333,99.5 450.5,98C 443.035,96.9675 435.702,95.3008 428.5,93C 387.964,75.1349 366.297,43.9682 363.5,-0.5 Z"/></g>
<g><path style="opacity:1" fill="#4ad094" d="M 255.5,34.5 C 255.5,49.1667 255.5,63.8333 255.5,78.5C 226.466,79.761 205.633,93.4277 193,119.5C 190.361,125.58 188.861,131.913 188.5,138.5C 187.504,154.325 187.17,170.325 187.5,186.5C 180.159,186.334 172.826,186.5 165.5,187C 159.912,189.586 156.079,193.753 154,199.5C 153.024,238.547 153.357,277.547 155,316.5C 156.833,321 160,324.167 164.5,326C 194.832,326.5 225.165,326.667 255.5,326.5C 255.5,373.5 255.5,420.5 255.5,467.5C 254.167,467.5 252.833,467.5 251.5,467.5C 174.677,428.843 118.844,370.176 84,291.5C 62.3801,235.876 55.3801,178.543 63,119.5C 64.5,118 66,116.5 67.5,115C 103.718,100.663 130.552,76.163 148,41.5C 150.264,38.5665 153.098,36.3999 156.5,35C 189.498,34.5 222.498,34.3334 255.5,34.5 Z"/></g>
<g><path style="opacity:1" fill="#35b69d" d="M 255.5,34.5 C 278.5,34.5 301.5,34.5 324.5,34.5C 331.401,44.6211 337.568,55.2878 343,66.5C 361.372,92.9405 385.539,112.107 415.5,124C 417.956,126.408 419.789,129.241 421,132.5C 430.478,242.088 397.144,336.088 321,414.5C 301.265,434.242 279.765,451.742 256.5,467C 257.448,467.483 258.448,467.649 259.5,467.5C 256.833,468.833 254.167,468.833 251.5,467.5C 252.833,467.5 254.167,467.5 255.5,467.5C 255.5,420.5 255.5,373.5 255.5,326.5C 275.833,326.5 296.167,326.5 316.5,326.5C 326.506,326.666 336.506,326.5 346.5,326C 352,324.5 355.5,321 357,315.5C 357.667,276.167 357.667,236.833 357,197.5C 354.744,192.243 350.91,188.743 345.5,187C 338.174,186.5 330.841,186.334 323.5,186.5C 323.667,168.83 323.5,151.164 323,133.5C 313.793,98.7884 291.293,80.4551 255.5,78.5C 255.5,63.8333 255.5,49.1667 255.5,34.5 Z"/></g>
<g><path style="opacity:1" fill="#1f9690" d="M 324.5,34.5 C 334.839,34.3335 345.172,34.5002 355.5,35C 357.167,36 358.833,37 360.5,38C 378.235,73.7363 405.568,99.0696 442.5,114C 445.832,116.491 448.332,119.658 450,123.5C 460.749,264.491 407.582,373.657 290.5,451C 280.705,457.564 270.371,463.064 259.5,467.5C 258.448,467.649 257.448,467.483 256.5,467C 279.765,451.742 301.265,434.242 321,414.5C 397.144,336.088 430.478,242.088 421,132.5C 419.789,129.241 417.956,126.408 415.5,124C 385.539,112.107 361.372,92.9405 343,66.5C 337.568,55.2878 331.401,44.6211 324.5,34.5 Z"/></g>
<g><path style="opacity:1" fill="#626a75" d="M 188.5,138.5 C 188.5,154.5 188.5,170.5 188.5,186.5C 193.167,186.5 197.833,186.5 202.5,186.5C 220.167,186.5 237.833,186.5 255.5,186.5C 273.167,186.5 290.833,186.5 308.5,186.5C 308.5,171.167 308.5,155.833 308.5,140.5C 309.496,155.658 309.83,170.991 309.5,186.5C 318.846,186.351 325.013,190.685 328,199.5C 328.667,237.5 328.667,275.5 328,313.5C 326.383,319.942 322.55,324.275 316.5,326.5C 296.167,326.5 275.833,326.5 255.5,326.5C 225.165,326.667 194.832,326.5 164.5,326C 160,324.167 156.833,321 155,316.5C 153.357,277.547 153.024,238.547 154,199.5C 156.079,193.753 159.912,189.586 165.5,187C 172.826,186.5 180.159,186.334 187.5,186.5C 187.17,170.325 187.504,154.325 188.5,138.5 Z"/></g>
<g><path style="opacity:1" fill="#515a66" d="M 255.5,78.5 C 291.293,80.4551 313.793,98.7884 323,133.5C 323.5,151.164 323.667,168.83 323.5,186.5C 330.841,186.334 338.174,186.5 345.5,187C 350.91,188.743 354.744,192.243 357,197.5C 357.667,236.833 357.667,276.167 357,315.5C 355.5,321 352,324.5 346.5,326C 336.506,326.5 326.506,326.666 316.5,326.5C 322.55,324.275 326.383,319.942 328,313.5C 328.667,275.5 328.667,237.5 328,199.5C 325.013,190.685 318.846,186.351 309.5,186.5C 309.83,170.991 309.496,155.658 308.5,140.5C 303.123,111.13 285.456,95.4631 255.5,93.5C 232.123,94.6948 215.623,106.028 206,127.5C 204.592,131.057 203.592,134.724 203,138.5C 202.5,154.497 202.333,170.497 202.5,186.5C 197.833,186.5 193.167,186.5 188.5,186.5C 188.5,170.5 188.5,154.5 188.5,138.5C 188.861,131.913 190.361,125.58 193,119.5C 205.633,93.4277 226.466,79.761 255.5,78.5 Z"/></g>
<g><path style="opacity:1" fill="#35b69d" d="M 255.5,93.5 C 285.456,95.4631 303.123,111.13 308.5,140.5C 308.5,155.833 308.5,171.167 308.5,186.5C 290.833,186.5 273.167,186.5 255.5,186.5C 255.5,155.5 255.5,124.5 255.5,93.5 Z"/></g>
<g><path style="opacity:1" fill="#4ad093" d="M 255.5,93.5 C 255.5,124.5 255.5,155.5 255.5,186.5C 237.833,186.5 220.167,186.5 202.5,186.5C 202.333,170.497 202.5,154.497 203,138.5C 203.592,134.724 204.592,131.057 206,127.5C 215.623,106.028 232.123,94.6948 255.5,93.5 Z"/></g>
<g><path style="opacity:1" fill="#eeeeef" d="M 249.5,231.5 C 262.871,229.392 270.871,234.892 273.5,248C 273.246,255.237 270.079,260.737 264,264.5C 263.911,273.242 263.244,281.909 262,290.5C 256.879,294.875 252.545,294.209 249,288.5C 248.667,280.5 248.333,272.5 248,264.5C 237.763,257.378 235.763,248.378 242,237.5C 244.478,235.361 246.978,233.361 249.5,231.5 Z"/></g>
</svg>
